<?xml version="1.0" encoding="UTF-8"?>
<svg id="Layer_2" data-name="Layer 2" xmlns="http://www.w3.org/2000/svg" viewBox="0 0 368.13 81.57">
  <defs>
    <style>
      .cls-1 {
        font-family: NotoSansJP-SemiBold, 'Noto Sans JP';
        font-size: 8px;
        font-variation-settings: 'wght' 600;
        font-weight: 600;
      }

      .cls-2 {
        font-family: RobotoMono-Bold, 'Roboto Mono';
        font-size: 21px;
        font-variation-settings: 'wght' 700;
        font-weight: 700;
      }

      .cls-3 {
        stroke: #000;
        stroke-miterlimit: 10;
        stroke-width: 2px;
      }

      .cls-4 {
        letter-spacing: .16em;
      }

      .cls-5 {
        letter-spacing: .16em;
      }

      .cls-6 {
        font-family: RobotoMono-Regular, 'Roboto Mono';
        font-size: 12px;
        font-variation-settings: 'wght' 400;
        letter-spacing: -.05em;
      }

      .cls-7 {
        letter-spacing: -.11em;
      }

      .cls-8 {
        letter-spacing: -.1em;
      }

      .cls-9 {
        letter-spacing: -.14em;
      }

      .cls-10 {
        letter-spacing: -.05em;
      }

      .cls-11 {
        letter-spacing: -.05em;
      }

      .cls-12 {
        letter-spacing: -.05em;
      }
    </style>
  </defs>
  <g id="Layer_1-2" data-name="Layer 1">
    <g>
      <text class="cls-6" transform="translate(87.3 50.32)"><tspan x="0" y="0">MAP NODE — PROCESSING</tspan><tspan x="0" y="14">LATENCY: 15ms | TEMP: 28°C</tspan><tspan x="0" y="28">12 “ 004 • 15 “ 0.8 // ” 12 • 44 “ 003 • 7</tspan></text>
      <g>
        <path class="cls-3" d="M3.9,40.13c0-9.81,7.95-17.77,17.77-17.77h-10.26L1.15,40.13l10.26,17.77h10.26c-9.81,0-17.77-7.95-17.77-17.77Z"/>
        <path class="cls-3" d="M31.93,22.36h-10.26c9.81,0,17.77,7.95,17.77,17.77s-7.95,17.77-17.77,17.77h10.26l10.26-17.77-10.26-17.77Z"/>
      </g>
      <g>
        <path class="cls-3" d="M38.88,60.27c0-9.81,7.95-17.77,17.77-17.77h-10.26l-10.26,17.77,10.26,17.77h10.26c-9.81,0-17.77-7.95-17.77-17.77Z"/>
        <path class="cls-3" d="M66.91,42.51h-10.26c9.81,0,17.77,7.95,17.77,17.77s-7.95,17.77-17.77,17.77h10.26l10.26-17.77-10.26-17.77Z"/>
      </g>
      <g>
        <path class="cls-3" d="M38.88,19.98c0-9.81,7.95-17.77,17.77-17.77h-10.26l-10.26,17.77,10.26,17.77h10.26c-9.81,0-17.77-7.95-17.77-17.77Z"/>
        <path class="cls-3" d="M66.91,2.21h-10.26c9.81,0,17.77,7.95,17.77,17.77s-7.95,17.77-17.77,17.77h10.26l10.26-17.77-10.26-17.77Z"/>
      </g>
      <path d="M21.67,27.66c6.87,0,12.46,5.59,12.46,12.46s-5.59,12.46-12.46,12.46-12.46-5.59-12.46-12.46,5.59-12.46,12.46-12.46M21.67,25.66c-7.99,0-14.46,6.48-14.46,14.46s6.48,14.46,14.46,14.46,14.46-6.48,14.46-14.46-6.48-14.46-14.46-14.46h0Z"/>
      <path d="M56.65,47.81c6.87,0,12.46,5.59,12.46,12.46s-5.59,12.46-12.46,12.46-12.46-5.59-12.46-12.46,5.59-12.46,12.46-12.46M56.65,45.81c-7.99,0-14.46,6.48-14.46,14.46s6.48,14.46,14.46,14.46,14.46-6.48,14.46-14.46-6.48-14.46-14.46-14.46h0Z"/>
      <path d="M56.65,7.52c6.87,0,12.46,5.59,12.46,12.46s-5.59,12.46-12.46,12.46-12.46-5.59-12.46-12.46,5.59-12.46,12.46-12.46M56.65,5.52c-7.99,0-14.46,6.48-14.46,14.46s6.48,14.46,14.46,14.46,14.46-6.48,14.46-14.46-6.48-14.46-14.46-14.46h0Z"/>
      <g>
        <path d="M350.43,42.89v9.35h1v1.26h-2.62v-11.87h2.62v1.26h-1Z"/>
        <path d="M359.5,46.78v1.49h-2.14v2.41h-1.55v-2.41h-2.15v-1.49h2.15v-2.31h1.55v2.31h2.14Z"/>
        <path d="M364.64,41.63v11.87h-2.62v-1.26h1v-9.35h-1v-1.26h2.62Z"/>
      </g>
      <g>
        <path d="M340.12,44.35c-2.05,0-3.71,1.66-3.71,3.71v.25h1.49v-.25c0-1.23,1-2.22,2.22-2.22s2.22,1,2.22,2.22v.25h1.49v-.25c0-2.05-1.67-3.71-3.71-3.71Z"/>
        <path d="M340.12,46.33c-.96,0-1.73.78-1.73,1.73v.25h1.49v-.25c0-.13.11-.24.24-.24s.24.11.24.24v.25h1.49v-.25c0-.96-.78-1.73-1.73-1.73Z"/>
        <rect x="339.38" y="48.8" width="1.49" height="1.49"/>
        <path d="M340.13,41.39c-2.35,0-4.39,1.31-5.44,3.24-1.05-1.93-3.09-3.24-5.44-3.24-3.41,0-6.18,2.77-6.18,6.18s2.77,6.18,6.18,6.18c2.35,0,4.39-1.31,5.44-3.24,1.04,1.93,3.09,3.24,5.44,3.24,3.4,0,6.18-2.77,6.18-6.18s-2.77-6.18-6.18-6.18ZM329.25,52.26c-2.59,0-4.69-2.1-4.69-4.69s2.1-4.69,4.69-4.69,4.69,2.11,4.69,4.69-2.1,4.69-4.69,4.69ZM340.13,52.26c-2.59,0-4.7-2.1-4.7-4.69s2.11-4.69,4.7-4.69,4.69,2.11,4.69,4.69-2.1,4.69-4.69,4.69Z"/>
        <path d="M332.04,45.85v3.43c0,1.03-1.4,1.5-2.79,1.5s-2.79-.47-2.79-1.5v-3.43c0-1.03,1.4-1.5,2.79-1.5s2.79.47,2.79,1.5Z"/>
      </g>
      <text class="cls-2" transform="translate(87.9 17.96)"><tspan class="cls-12" x="0" y="0">TIME</tspan><tspan class="cls-5" x="46.21" y="0"> </tspan><tspan class="cls-12" x="62.25" y="0">ENGINE</tspan><tspan class="cls-5" x="131.56" y="0"> </tspan><tspan class="cls-12" x="147.61" y="0">—</tspan><tspan class="cls-4" x="159.16" y="0"> </tspan><tspan class="cls-10" x="175.2" y="0">(SYNCING)</tspan></text>
      <text class="cls-1" transform="translate(285.05 50.45)"><tspan class="cls-11" x="0" y="0">同</tspan><tspan class="cls-8" x="7.6" y="0">期</tspan><tspan class="cls-9" x="14.77" y="0">す</tspan><tspan class="cls-7" x="21.66" y="0">る</tspan></text>
    </g>
  </g>
</svg>