<?xml version="1.0" encoding="UTF-8"?>
<svg id="Layer_2" data-name="Layer 2" xmlns="http://www.w3.org/2000/svg" viewBox="0 0 169.1 118.01">
  <defs>
    <style>
      .cls-1 {
        font-family: RobotoMono-Medium, 'Roboto Mono';
        font-size: 24px;
        font-variation-settings: 'wght' 500;
        font-weight: 500;
      }

      .cls-1, .cls-2 {
        letter-spacing: -.05em;
      }

      .cls-3 {
        stroke-linejoin: round;
      }

      .cls-3, .cls-4 {
        fill: none;
        stroke: #000;
        stroke-width: .75px;
      }

      .cls-2 {
        font-size: 12px;
      }

      .cls-2, .cls-5 {
        font-family: RobotoMono-Regular, 'Roboto Mono';
        font-variation-settings: 'wght' 400;
      }

      .cls-4 {
        stroke-miterlimit: 10;
      }

      .cls-6 {
        font-family: RobotoMono-SemiBold, 'Roboto Mono';
        font-variation-settings: 'wght' 600;
        font-weight: 600;
      }

      .cls-6, .cls-5 {
        font-size: 8px;
        letter-spacing: -.05em;
      }
    </style>
  </defs>
  <g id="Layer_1-2" data-name="Layer 1">
    <g>
      <g>
        <g>
          <line class="cls-4" x1="27.71" y1="14.88" x2="27.71" y2="26.11"/>
          <line class="cls-4" x1="22.1" y1="20.49" x2="33.33" y2="20.49"/>
        </g>
        <g>
          <line class="cls-4" x1="45.21" y1="44.59" x2="45.21" y2="55.82"/>
          <line class="cls-4" x1="39.59" y1="50.21" x2="50.82" y2="50.21"/>
        </g>
        <path class="cls-3" d="M60.72,50.21c0-8.57-6.95-15.52-15.52-15.52-1.3,0-2.56.18-3.76.48,3.92-3.67,6.39-8.88,6.39-14.68C47.83,9.38,38.82.38,27.71.38S7.59,9.38,7.59,20.49s9.01,20.12,20.12,20.12c2.14,0,4.21-.34,6.15-.96-2.58,2.77-4.17,6.48-4.17,10.56,0,4.75,2.14,9,5.5,11.84-5.49.72-9.73,5.4-9.73,11.08,0,6.18,5.01,11.18,11.18,11.18s11.18-5.01,11.18-11.18c0-2.85-1.07-5.44-2.83-7.41.07,0,.13.01.2.01,8.57,0,15.52-6.95,15.52-15.52Z"/>
        <g>
          <line class="cls-4" x1="36.65" y1="67.51" x2="36.65" y2="78.75"/>
          <line class="cls-4" x1="31.03" y1="73.13" x2="42.26" y2="73.13"/>
        </g>
        <circle class="cls-4" cx="11.56" cy="56.33" r="11.18"/>
        <g>
          <line class="cls-4" x1="11.56" y1="50.71" x2="11.56" y2="61.94"/>
          <line class="cls-4" x1="5.94" y1="56.33" x2="17.18" y2="56.33"/>
        </g>
      </g>
      <text class="cls-2" transform="translate(.38 100.75)"><tspan x="0" y="0">ENTRY POINT — ONLINE</tspan><tspan x="0" y="14" xml:space="preserve">  POWER: 84% — TEMP: 25°C</tspan></text>
      <g>
        <rect x="149.01" y="67.24" width="2.02" height="2.02" rx=".6" ry=".6"/>
        <rect x="151.52" y="67.24" width="2.02" height="2.02" rx=".6" ry=".6"/>
        <rect x="154.03" y="67.24" width="2.02" height="2.02" rx=".6" ry=".6"/>
        <rect x="156.53" y="67.24" width="2.02" height="2.02" rx=".6" ry=".6"/>
        <rect x="159.04" y="67.24" width="2.02" height="2.02" rx=".6" ry=".6"/>
        <rect x="161.55" y="67.24" width="2.02" height="2.02" rx=".6" ry=".6"/>
        <rect x="164.06" y="67.24" width="2.02" height="2.02" rx=".6" ry=".6"/>
        <rect x="149.01" y="69.75" width="2.02" height="2.02" rx=".6" ry=".6"/>
        <rect x="151.52" y="69.75" width="2.02" height="2.02" rx=".6" ry=".6"/>
        <rect x="154.03" y="69.75" width="2.02" height="2.02" rx=".6" ry=".6"/>
        <rect x="159.04" y="69.75" width="2.02" height="2.02" rx=".6" ry=".6"/>
        <rect x="161.55" y="69.75" width="2.02" height="2.02" rx=".6" ry=".6"/>
        <rect x="164.06" y="69.75" width="2.02" height="2.02" rx=".6" ry=".6"/>
        <rect x="149.01" y="72.26" width="2.02" height="2.02" rx=".6" ry=".6"/>
        <rect x="151.52" y="72.26" width="2.02" height="2.02" rx=".6" ry=".6"/>
        <rect x="154.03" y="72.26" width="2.02" height="2.02" rx=".6" ry=".6"/>
        <rect x="159.04" y="72.26" width="2.02" height="2.02" rx=".6" ry=".6"/>
        <rect x="161.55" y="72.26" width="2.02" height="2.02" rx=".6" ry=".6"/>
        <rect x="164.06" y="72.26" width="2.02" height="2.02" rx=".6" ry=".6"/>
        <rect x="149.01" y="74.77" width="2.02" height="2.02" rx=".6" ry=".6"/>
        <rect x="164.06" y="74.77" width="2.02" height="2.02" rx=".6" ry=".6"/>
        <rect x="149.01" y="77.27" width="2.02" height="2.02" rx=".6" ry=".6"/>
        <rect x="151.52" y="77.27" width="2.02" height="2.02" rx=".6" ry=".6"/>
        <rect x="154.03" y="77.27" width="2.02" height="2.02" rx=".6" ry=".6"/>
        <rect x="159.04" y="77.27" width="2.02" height="2.02" rx=".6" ry=".6"/>
        <rect x="161.55" y="77.27" width="2.02" height="2.02" rx=".6" ry=".6"/>
        <rect x="164.06" y="77.27" width="2.02" height="2.02" rx=".6" ry=".6"/>
        <rect x="149.01" y="79.78" width="2.02" height="2.02" rx=".6" ry=".6"/>
        <rect x="151.52" y="79.78" width="2.02" height="2.02" rx=".6" ry=".6"/>
        <rect x="154.03" y="79.78" width="2.02" height="2.02" rx=".6" ry=".6"/>
        <rect x="159.04" y="79.78" width="2.02" height="2.02" rx=".6" ry=".6"/>
        <rect x="161.55" y="79.78" width="2.02" height="2.02" rx=".6" ry=".6"/>
        <rect x="164.06" y="79.78" width="2.02" height="2.02" rx=".6" ry=".6"/>
        <rect x="149.01" y="82.29" width="2.02" height="2.02" rx=".6" ry=".6"/>
        <rect x="146.52" y="67.24" width="2.02" height="2.02" rx=".6" ry=".6"/>
        <rect x="146.52" y="69.75" width="2.02" height="2.02" rx=".6" ry=".6"/>
        <rect x="146.52" y="72.26" width="2.02" height="2.02" rx=".6" ry=".6"/>
        <rect x="146.52" y="74.77" width="2.02" height="2.02" rx=".6" ry=".6"/>
        <rect x="146.52" y="77.27" width="2.02" height="2.02" rx=".6" ry=".6"/>
        <rect x="146.52" y="79.78" width="2.02" height="2.02" rx=".6" ry=".6"/>
        <rect x="146.52" y="82.29" width="2.02" height="2.02" rx=".6" ry=".6"/>
        <rect x="151.52" y="82.29" width="2.02" height="2.02" rx=".6" ry=".6"/>
        <rect x="154.03" y="82.29" width="2.02" height="2.02" rx=".6" ry=".6"/>
        <rect x="156.53" y="82.29" width="2.02" height="2.02" rx=".6" ry=".6"/>
        <rect x="159.04" y="82.29" width="2.02" height="2.02" rx=".6" ry=".6"/>
        <rect x="161.55" y="82.29" width="2.02" height="2.02" rx=".6" ry=".6"/>
        <rect x="164.06" y="82.29" width="2.02" height="2.02" rx=".6" ry=".6"/>
        <rect x="166.55" y="67.24" width="2.02" height="2.02" rx=".6" ry=".6"/>
        <rect x="166.55" y="69.75" width="2.02" height="2.02" rx=".6" ry=".6"/>
        <rect x="166.55" y="72.26" width="2.02" height="2.02" rx=".6" ry=".6"/>
        <rect x="166.55" y="74.77" width="2.02" height="2.02" rx=".6" ry=".6"/>
        <rect x="166.55" y="77.27" width="2.02" height="2.02" rx=".6" ry=".6"/>
        <rect x="166.55" y="79.78" width="2.02" height="2.02" rx=".6" ry=".6"/>
        <rect x="166.55" y="82.29" width="2.02" height="2.02" rx=".6" ry=".6"/>
      </g>
      <text class="cls-1" transform="translate(52.12 84.31)"><tspan x="0" y="0">CHANNEL</tspan></text>
      <text class="cls-6" transform="translate(70.48 22.99)"><tspan x="0" y="0">[000738-015]</tspan></text>
      <line class="cls-3" x1="125.09" y1="20.49" x2="146.36" y2="20.49"/>
      <line class="cls-3" x1="47.83" y1="20.49" x2="69.1" y2="20.49"/>
      <circle class="cls-4" cx="157.54" cy="20.49" r="11.18"/>
      <g>
        <line class="cls-4" x1="157.54" y1="14.88" x2="157.54" y2="26.11"/>
        <line class="cls-4" x1="151.93" y1="20.49" x2="163.16" y2="20.49"/>
      </g>
      <text class="cls-5" transform="translate(57.51 34.53)"><tspan x="0" y="0">MODULE Z</tspan><tspan x="0" y="7" xml:space="preserve"> RESTORING</tspan><tspan x="0" y="14" xml:space="preserve">  CODE: 0x670F</tspan></text>
      <path d="M160.94,43.59c1.16,0,2.1.94,2.1,2.1s-.94,2.1-2.1,2.1-2.1-.94-2.1-2.1.94-2.1,2.1-2.1M160.94,42.84c-1.57,0-2.85,1.28-2.85,2.85s1.28,2.85,2.85,2.85,2.85-1.28,2.85-2.85-1.28-2.85-2.85-2.85h0Z"/>
      <path d="M165.9,43.59c1.16,0,2.1.94,2.1,2.1s-.94,2.1-2.1,2.1-2.1-.94-2.1-2.1.94-2.1,2.1-2.1M165.9,42.84c-1.57,0-2.85,1.28-2.85,2.85s1.28,2.85,2.85,2.85,2.85-1.28,2.85-2.85-1.28-2.85-2.85-2.85h0Z"/>
    </g>
  </g>
</svg>