<?xml version="1.0" encoding="UTF-8"?>
<svg id="Layer_2" data-name="Layer 2" xmlns="http://www.w3.org/2000/svg" viewBox="0 0 187.67 96.36">
  <defs>
    <style>
      .cls-1, .cls-2 {
        font-size: 12px;
        letter-spacing: -.05em;
      }

      .cls-1, .cls-3 {
        font-family: RobotoMono-Bold, 'Roboto Mono';
        font-variation-settings: 'wght' 700;
        font-weight: 700;
      }

      .cls-4 {
        stroke-dasharray: 4.09 4.09;
      }

      .cls-4, .cls-5, .cls-6 {
        fill: none;
        stroke: #000;
        stroke-miterlimit: 10;
        stroke-width: .75px;
      }

      .cls-4, .cls-6 {
        stroke-linecap: square;
      }

      .cls-2 {
        font-family: RobotoMono-Regular, 'Roboto Mono';
        font-variation-settings: 'wght' 400;
      }

      .cls-3 {
        font-size: 21px;
        letter-spacing: -.05em;
      }
    </style>
  </defs>
  <g id="Layer_1-2" data-name="Layer 1">
    <g>
      <g>
        <circle cx="184.7" cy="5.86" r="2.97"/>
        <ellipse cx="184.7" cy="18.22" rx="2.97" ry="2.66"/>
        <ellipse cx="184.7" cy="30.57" rx="2.97" ry="2.35"/>
        <ellipse cx="184.7" cy="42.92" rx="2.97" ry="2.04"/>
        <ellipse cx="184.7" cy="55.27" rx="2.97" ry="1.73"/>
        <ellipse cx="184.7" cy="67.62" rx="2.97" ry="1.42"/>
        <ellipse cx="184.7" cy="79.97" rx="2.97" ry="1.1"/>
        <ellipse cx="184.7" cy="92.32" rx="2.97" ry=".79"/>
      </g>
      <g>
        <path class="cls-5" d="M45.35,93.11C20.51,93.11.38,72.98.38,48.14S20.51,3.17,45.35,3.17"/>
        <path class="cls-5" d="M45.35,79.75c-17.46,0-31.61-14.15-31.61-31.61s14.15-31.61,31.61-31.61"/>
        <path class="cls-5" d="M45.35,66.38c-10.07,0-18.24-8.17-18.24-18.24s8.17-18.24,18.24-18.24"/>
      </g>
      <circle cx="34.25" cy="18.54" r="3.22"/>
      <circle cx="10.52" cy="76.52" r="3.22"/>
      <circle cx="27.11" cy="48.14" r="3.22"/>
      <g>
        <line class="cls-6" x1="57.76" y1="93.11" x2="57.76" y2="91.11"/>
        <line class="cls-4" x1="57.76" y1="87.02" x2="57.76" y2="7.21"/>
        <line class="cls-6" x1="57.76" y1="5.17" x2="57.76" y2="3.17"/>
      </g>
      <text class="cls-3" transform="translate(69.83 17.96)"><tspan x="0" y="0">//SYSTEM</tspan></text>
      <text class="cls-2" transform="translate(68.82 48.31)"><tspan x="0" y="0">LATENCY: 12MS</tspan><tspan x="0" y="14">STATUS: LIVE</tspan></text>
      <text class="cls-1" transform="translate(139.26 93.11)"><tspan x="0" y="0">2026</tspan></text>
      <text class="cls-1" transform="translate(69.63 93.11)"><tspan x="0" y="0">YEAR</tspan></text>
    </g>
  </g>
</svg>