<?xml version="1.0" encoding="UTF-8"?>
<svg id="Layer_2" data-name="Layer 2" xmlns="http://www.w3.org/2000/svg" viewBox="0 0 346.42 79.22">
  <defs>
    <style>
      .cls-1 {
        font-size: 12px;
        letter-spacing: -.05em;
      }

      .cls-2 {
        font-size: 8px;
        letter-spacing: -.05em;
      }

      .cls-2, .cls-3 {
        font-family: RobotoMono-Bold, 'Roboto Mono';
        font-variation-settings: 'wght' 700;
        font-weight: 700;
      }

      .cls-4 {
        font-family: RobotoMono-Regular, 'Roboto Mono';
        font-variation-settings: 'wght' 400;
      }

      .cls-5 {
        stroke-width: .75px;
      }

      .cls-5, .cls-6 {
        fill: none;
        stroke: #000;
        stroke-miterlimit: 10;
      }
    </style>
  </defs>
  <g id="Layer_1-2" data-name="Layer 1">
    <g>
      <g>
        <line class="cls-6" x1="332.57" y1="9.93" x2="332.57" y2="1.97"/>
        <line class="cls-6" x1="335.38" y1="8.76" x2="329.75" y2="3.13"/>
        <line class="cls-6" x1="335.38" y1="3.13" x2="329.75" y2="8.76"/>
        <line class="cls-6" x1="320.34" y1="5.95" x2="345.15" y2="5.95"/>
      </g>
      <rect class="cls-5" x="319.98" y="1.97" width="25.17" height="7.96" rx="1.08" ry="1.08"/>
      <text class="cls-1" transform="translate(160.99 10.27)"><tspan class="cls-4"><tspan x="0" y="0">SECTOR A — ACTIVE</tspan></tspan><tspan class="cls-4"><tspan x="0" y="10.95">LOAD: 29% | TEMP: 30°C</tspan></tspan><tspan class="cls-4"><tspan x="0" y="32.85">SECTOR C — DEGRADED</tspan></tspan><tspan class="cls-4"><tspan x="0" y="43.8">SIGNAL: WEAK | LATENCY: 44ms</tspan></tspan><tspan class="cls-3"><tspan x="0" y="65.7">LOG_384.TXT</tspan></tspan></text>
      <path d="M67.21,2.72c3.39,0,6.15,2.76,6.15,6.15v59.93c0,3.39-2.76,6.15-6.15,6.15H7.27c-3.39,0-6.15-2.76-6.15-6.15V8.87c0-3.39,2.76-6.15,6.15-6.15h59.93M37.24,33.12c2.27,0,4.12-1.85,4.12-4.12s-1.85-4.12-4.12-4.12-4.12,1.85-4.12,4.12,1.85,4.12,4.12,4.12M46.98,42.85c2.27,0,4.12-1.85,4.12-4.12s-1.85-4.12-4.12-4.12-4.12,1.85-4.12,4.12,1.85,4.12,4.12,4.12M66.45,52.59c2.27,0,4.12-1.85,4.12-4.12s-1.85-4.12-4.12-4.12-4.12,1.85-4.12,4.12,1.85,4.12,4.12,4.12M37.24,52.59c2.27,0,4.12-1.85,4.12-4.12s-1.85-4.12-4.12-4.12-4.12,1.85-4.12,4.12,1.85,4.12,4.12,4.12M27.51,52.59c2.27,0,4.12-1.85,4.12-4.12s-1.85-4.12-4.12-4.12-4.12,1.85-4.12,4.12,1.85,4.12,4.12,4.12M8.04,52.59c2.27,0,4.12-1.85,4.12-4.12s-1.85-4.12-4.12-4.12-4.12,1.85-4.12,4.12,1.85,4.12,4.12,4.12M37.24,62.32c2.27,0,4.12-1.85,4.12-4.12s-1.85-4.12-4.12-4.12-4.12,1.85-4.12,4.12,1.85,4.12,4.12,4.12M66.45,72.06c2.27,0,4.12-1.85,4.12-4.12s-1.85-4.12-4.12-4.12-4.12,1.85-4.12,4.12,1.85,4.12,4.12,4.12M46.98,72.06c2.27,0,4.12-1.85,4.12-4.12s-1.85-4.12-4.12-4.12-4.12,1.85-4.12,4.12,1.85,4.12,4.12,4.12M27.51,72.06c2.27,0,4.12-1.85,4.12-4.12s-1.85-4.12-4.12-4.12-4.12,1.85-4.12,4.12,1.85,4.12,4.12,4.12M17.77,72.06c2.27,0,4.12-1.85,4.12-4.12s-1.85-4.12-4.12-4.12-4.12,1.85-4.12,4.12,1.85,4.12,4.12,4.12M8.04,72.06c2.27,0,4.12-1.85,4.12-4.12s-1.85-4.12-4.12-4.12-4.12,1.85-4.12,4.12,1.85,4.12,4.12,4.12M67.21,1.97H7.27C3.46,1.97.38,5.06.38,8.87v59.93c0,3.81,3.09,6.9,6.9,6.9h59.93c3.81,0,6.9-3.09,6.9-6.9V8.87c0-3.81-3.09-6.9-6.9-6.9h0ZM37.24,32.37c-1.86,0-3.37-1.51-3.37-3.37s1.51-3.37,3.37-3.37,3.37,1.51,3.37,3.37-1.51,3.37-3.37,3.37h0ZM46.98,42.1c-1.86,0-3.37-1.51-3.37-3.37s1.51-3.37,3.37-3.37,3.37,1.51,3.37,3.37-1.51,3.37-3.37,3.37h0ZM66.45,51.84c-1.86,0-3.37-1.51-3.37-3.37s1.51-3.37,3.37-3.37,3.37,1.51,3.37,3.37-1.51,3.37-3.37,3.37h0ZM37.24,51.84c-1.86,0-3.37-1.51-3.37-3.37s1.51-3.37,3.37-3.37,3.37,1.51,3.37,3.37-1.51,3.37-3.37,3.37h0ZM27.51,51.84c-1.86,0-3.37-1.51-3.37-3.37s1.51-3.37,3.37-3.37,3.37,1.51,3.37,3.37-1.51,3.37-3.37,3.37h0ZM8.04,51.84c-1.86,0-3.37-1.51-3.37-3.37s1.51-3.37,3.37-3.37,3.37,1.51,3.37,3.37-1.51,3.37-3.37,3.37h0ZM37.24,61.57c-1.86,0-3.37-1.51-3.37-3.37s1.51-3.37,3.37-3.37,3.37,1.51,3.37,3.37-1.51,3.37-3.37,3.37h0ZM66.45,71.31c-1.86,0-3.37-1.51-3.37-3.37s1.51-3.37,3.37-3.37,3.37,1.51,3.37,3.37-1.51,3.37-3.37,3.37h0ZM46.98,71.31c-1.86,0-3.37-1.51-3.37-3.37s1.51-3.37,3.37-3.37,3.37,1.51,3.37,3.37-1.51,3.37-3.37,3.37h0ZM27.51,71.31c-1.86,0-3.37-1.51-3.37-3.37s1.51-3.37,3.37-3.37,3.37,1.51,3.37,3.37-1.51,3.37-3.37,3.37h0ZM17.77,71.31c-1.86,0-3.37-1.51-3.37-3.37s1.51-3.37,3.37-3.37,3.37,1.51,3.37,3.37-1.51,3.37-3.37,3.37h0ZM8.04,71.31c-1.86,0-3.37-1.51-3.37-3.37s1.51-3.37,3.37-3.37,3.37,1.51,3.37,3.37-1.51,3.37-3.37,3.37h0Z"/>
      <path d="M154.41,37.69h-20.81c-8.24,0-14.92-6.68-14.92-14.92V1.97h-2.28v20.81c0,8.24-6.68,14.92-14.92,14.92h-20.81v2.28h20.81c8.24,0,14.92,6.68,14.92,14.92v20.81h2.28v-20.81c0-8.24,6.68-14.92,14.92-14.92h20.81v-2.28Z"/>
      <path d="M147.5,2.72c3.4,0,6.16,2.76,6.16,6.16v59.91c0,3.4-2.76,6.16-6.16,6.16h-59.91c-3.4,0-6.16-2.76-6.16-6.16V8.88c0-3.4,2.76-6.16,6.16-6.16h59.91M147.5,1.97h-59.91c-3.82,0-6.91,3.09-6.91,6.91v59.91c0,3.82,3.09,6.91,6.91,6.91h59.91c3.82,0,6.91-3.09,6.91-6.91V8.88c0-3.82-3.09-6.91-6.91-6.91h0Z"/>
      <path d="M117.55,2.72c19.91,0,36.12,16.2,36.12,36.12s-16.2,36.12-36.12,36.12-36.12-16.2-36.12-36.12S97.63,2.72,117.55,2.72M117.55,1.97h0c-20.36,0-36.87,16.51-36.87,36.87h0c0,20.36,16.51,36.87,36.87,36.87h0c20.36,0,36.87-16.51,36.87-36.87h0c0-20.36-16.51-36.87-36.87-36.87h0Z"/>
      <g>
        <line class="cls-6" x1="252.57" y1="73.19" x2="255.52" y2="70.24"/>
        <line class="cls-6" x1="255.52" y1="73.19" x2="252.57" y2="70.24"/>
      </g>
      <text class="cls-2" transform="translate(313.21 74.64)"><tspan x="0" y="0">V.8.4.0</tspan></text>
      <rect class="cls-5" x="250.07" y="67.74" width="95.08" height="7.96" rx="1.08" ry="1.08"/>
    </g>
  </g>
</svg>