<?xml version="1.0" encoding="UTF-8"?>
<svg id="Layer_2" data-name="Layer 2" xmlns="http://www.w3.org/2000/svg" viewBox="0 0 206.6 38.46">
  <defs>
    <style>
      .cls-1 {
        font-size: 18px;
        letter-spacing: -.05em;
      }

      .cls-1, .cls-2 {
        font-family: RobotoMono-Regular, 'Roboto Mono';
        font-variation-settings: 'wght' 400;
      }

      .cls-2 {
        font-size: 8px;
        letter-spacing: -.05em;
      }
    </style>
  </defs>
  <g id="Layer_1-2" data-name="Layer 1">
    <g>
      <path d="M4.34,3.19l-1.16,1.16c-.46.46-1.22.46-1.68,0L.35,3.19c-.46-.46-.46-1.22,0-1.68L1.5.35c.46-.46,1.22-.46,1.68,0l1.16,1.16c.46.46.46,1.22,0,1.68ZM7.87,5.03l-1.16-1.16c-.46-.46-1.22-.46-1.68,0l-1.16,1.16c-.46.46-.46,1.22,0,1.68l1.16,1.16c.46.46,1.22.46,1.68,0l1.16-1.16c.46-.46.46-1.22,0-1.68ZM7.87,12.07l-1.16-1.16c-.46-.46-1.22-.46-1.68,0l-1.16,1.16c-.46.46-.46,1.22,0,1.68l1.16,1.16c.46.46,1.22.46,1.68,0l1.16-1.16c.46-.46.46-1.22,0-1.68ZM11.39,8.55l-1.16-1.16c-.46-.46-1.22-.46-1.68,0l-1.16,1.16c-.46.46-.46,1.22,0,1.68l1.16,1.16c.46.46,1.22.46,1.68,0l1.16-1.16c.46-.46.46-1.22,0-1.68ZM14.91,5.03l-1.16-1.16c-.46-.46-1.22-.46-1.68,0l-1.16,1.16c-.46.46-.46,1.22,0,1.68l1.16,1.16c.46.46,1.22.46,1.68,0l1.16-1.16c.46-.46.46-1.22,0-1.68ZM4.34,22.64l-1.16-1.16c-.46-.46-1.22-.46-1.68,0l-1.16,1.16c-.46.46-.46,1.22,0,1.68l1.16,1.16c.46.46,1.22.46,1.68,0l1.16-1.16c.46-.46.46-1.22,0-1.68ZM7.87,19.12l-1.16-1.16c-.46-.46-1.22-.46-1.68,0l-1.16,1.16c-.46.46-.46,1.22,0,1.68l1.16,1.16c.46.46,1.22.46,1.68,0l1.16-1.16c.46-.46.46-1.22,0-1.68ZM11.39,15.6l-1.16-1.16c-.46-.46-1.22-.46-1.68,0l-1.16,1.16c-.46.46-.46,1.22,0,1.68l1.16,1.16c.46.46,1.22.46,1.68,0l1.16-1.16c.46-.46.46-1.22,0-1.68ZM14.91,12.07l-1.16-1.16c-.46-.46-1.22-.46-1.68,0l-1.16,1.16c-.46.46-.46,1.22,0,1.68l1.16,1.16c.46.46,1.22.46,1.68,0l1.16-1.16c.46-.46.46-1.22,0-1.68ZM18.43,8.55l-1.16-1.16c-.46-.46-1.22-.46-1.68,0l-1.16,1.16c-.46.46-.46,1.22,0,1.68l1.16,1.16c.46.46,1.22.46,1.68,0l1.16-1.16c.46-.46.46-1.22,0-1.68ZM21.96,5.03l-1.16-1.16c-.46-.46-1.22-.46-1.68,0l-1.16,1.16c-.46.46-.46,1.22,0,1.68l1.16,1.16c.46.46,1.22.46,1.68,0l1.16-1.16c.46-.46.46-1.22,0-1.68ZM25.48,1.5l-1.16-1.16c-.46-.46-1.22-.46-1.68,0l-1.16,1.16c-.46.46-.46,1.22,0,1.68l1.16,1.16c.46.46,1.22.46,1.68,0l1.16-1.16c.46-.46.46-1.22,0-1.68ZM14.91,19.12l-1.16-1.16c-.46-.46-1.22-.46-1.68,0l-1.16,1.16c-.46.46-.46,1.22,0,1.68l1.16,1.16c.46.46,1.22.46,1.68,0l1.16-1.16c.46-.46.46-1.22,0-1.68ZM18.43,15.6l-1.16-1.16c-.46-.46-1.22-.46-1.68,0l-1.16,1.16c-.46.46-.46,1.22,0,1.68l1.16,1.16c.46.46,1.22.46,1.68,0l1.16-1.16c.46-.46.46-1.22,0-1.68ZM21.96,12.07l-1.16-1.16c-.46-.46-1.22-.46-1.68,0l-1.16,1.16c-.46.46-.46,1.22,0,1.68l1.16,1.16c.46.46,1.22.46,1.68,0l1.16-1.16c.46-.46.46-1.22,0-1.68ZM21.96,19.12l-1.16-1.16c-.46-.46-1.22-.46-1.68,0l-1.16,1.16c-.46.46-.46,1.22,0,1.68l1.16,1.16c.46.46,1.22.46,1.68,0l1.16-1.16c.46-.46.46-1.22,0-1.68ZM25.48,22.64l-1.16-1.16c-.46-.46-1.22-.46-1.68,0l-1.16,1.16c-.46.46-.46,1.22,0,1.68l1.16,1.16c.46.46,1.22.46,1.68,0l1.16-1.16c.46-.46.46-1.22,0-1.68Z"/>
      <text class="cls-1" transform="translate(24.72 18.17)"><tspan x="0" y="0">(AUDIO–SIGNAL)</tspan></text>
      <text class="cls-2" transform="translate(34.11 29.29)"><tspan x="0" y="0">PRIMARY ROUTE — VERIFIED</tspan><tspan x="0" y="7" xml:space="preserve">        CHECKSUM: OK — THROUGHPUT: HIGH</tspan></text>
      <g>
        <g id="_58.Sound" data-name=" 58.Sound">
          <path d="M191.4,17.91c-2.76,0-5-2.24-5-5s2.24-5,5-5,5,2.24,5,5c0,2.76-2.24,5-5,5ZM191.4,8.75c-2.3,0-4.17,1.87-4.17,4.17s1.87,4.17,4.17,4.17,4.17-1.87,4.17-4.17c0-2.3-1.87-4.16-4.17-4.17Z"/>
          <rect x="188.48" y="12.5" width=".83" height=".83"/>
          <rect x="193.48" y="12.5" width=".83" height=".83"/>
          <rect x="189.73" y="11.66" width=".83" height="3.75"/>
          <rect x="190.98" y="10.41" width=".83" height="3.75"/>
          <rect x="192.23" y="11.66" width=".83" height="2.92"/>
        </g>
        <g id="_58.Sound-2" data-name=" 58.Sound">
          <path d="M200.57,7.91c2.76,0,5,2.24,5,5s-2.24,5-5,5-5-2.24-5-5c0-2.76,2.24-5,5-5ZM200.57,17.08c2.3,0,4.17-1.87,4.17-4.17s-1.87-4.17-4.17-4.17-4.17,1.87-4.17,4.17c0,2.3,1.87,4.16,4.17,4.17Z"/>
          <rect x="202.65" y="12.5" width=".83" height=".83" transform="translate(406.13 25.83) rotate(180)"/>
          <rect x="197.65" y="12.5" width=".83" height=".83" transform="translate(396.13 25.83) rotate(180)"/>
          <rect x="201.4" y="10.41" width=".83" height="3.75" transform="translate(403.63 24.58) rotate(180)"/>
          <rect x="200.15" y="11.66" width=".83" height="3.75" transform="translate(401.13 27.08) rotate(180)"/>
          <rect x="198.9" y="11.25" width=".83" height="2.92" transform="translate(398.63 25.41) rotate(180)"/>
        </g>
      </g>
      <rect x="164.93" y="12.5" width="17.29" height=".83"/>
    </g>
  </g>
</svg>