<?xml version="1.0" encoding="UTF-8"?>
<svg id="Layer_2" data-name="Layer 2" xmlns="http://www.w3.org/2000/svg" viewBox="0 0 303.52 42.37">
  <defs>
    <style>
      .cls-1 {
        font-size: 21px;
        letter-spacing: -.05em;
      }

      .cls-1, .cls-2 {
        font-family: RobotoMono-Regular, 'Roboto Mono';
        font-variation-settings: 'wght' 400;
      }

      .cls-3 {
        fill: none;
        stroke: #000;
        stroke-miterlimit: 10;
        stroke-width: .75px;
      }

      .cls-2 {
        font-size: 8px;
        letter-spacing: -.05em;
      }
    </style>
  </defs>
  <g id="Layer_1-2" data-name="Layer 1">
    <g>
      <text class="cls-1" transform="translate(0 36.68)"><tspan x="0" y="0">LOCAL</tspan></text>
      <text class="cls-1" transform="translate(95.17 36.68)"><tspan x="0" y="0">INTERFACE</tspan></text>
      <text class="cls-1" transform="translate(221.61 36.68)"><tspan x="0" y="0">V6.0.21</tspan></text>
      <circle cx="68.91" cy="29.21" r="7.46"/>
      <circle cx="85.69" cy="29.21" r="7.46"/>
      <circle cx="210.84" cy="29.21" r="7.46"/>
      <path d="M210.84,2.92c3.7,0,6.71,3.01,6.71,6.71s-3.01,6.71-6.71,6.71-6.71-3.01-6.71-6.71,3.01-6.71,6.71-6.71M210.84,2.17c-4.12,0-7.46,3.34-7.46,7.46s3.34,7.46,7.46,7.46,7.46-3.34,7.46-7.46-3.34-7.46-7.46-7.46h0Z"/>
      <path d="M191.44,2.92c3.7,0,6.71,3.01,6.71,6.71s-3.01,6.71-6.71,6.71-6.71-3.01-6.71-6.71,3.01-6.71,6.71-6.71M191.44,2.17c-4.12,0-7.46,3.34-7.46,7.46s3.34,7.46,7.46,7.46,7.46-3.34,7.46-7.46-3.34-7.46-7.46-7.46h0Z"/>
      <g>
        <line class="cls-3" x1="289.27" x2="289.27" y2="19.27"/>
        <line class="cls-3" x1="191.44" y1="9.64" x2="298.9" y2="9.64"/>
        <line class="cls-3" x1="282.46" y1="2.82" x2="296.08" y2="16.45"/>
        <line class="cls-3" x1="282.46" y1="16.45" x2="296.08" y2="2.82"/>
      </g>
      <text class="cls-2" transform="translate(1.63 8.17)"><tspan x="0" y="0">NETWORK LAYER — ACTIVE</tspan><tspan x="0" y="8.9">THROUGHPUT: NOMINAL | LOAD: 34%</tspan></text>
    </g>
  </g>
</svg>