<?xml version="1.0" encoding="UTF-8"?>
<svg id="Layer_2" data-name="Layer 2" xmlns="http://www.w3.org/2000/svg" viewBox="0 0 220.82 26.52">
  <defs>
    <style>
      .cls-1 {
        font-family: RobotoMono-Regular, 'Roboto Mono';
        font-size: 12px;
        font-variation-settings: 'wght' 400;
        letter-spacing: -.05em;
      }

      .cls-2 {
        stroke-dasharray: 0 7.28;
      }

      .cls-2, .cls-3, .cls-4, .cls-5 {
        fill: none;
        stroke: #000;
        stroke-miterlimit: 10;
        stroke-width: 3px;
      }

      .cls-2, .cls-4 {
        stroke-linecap: round;
      }

      .cls-3 {
        stroke-linecap: square;
      }
    </style>
  </defs>
  <g id="Layer_1-2" data-name="Layer 1">
    <g>
      <path d="M11.32,2.01c5.83,0,10.57,4.74,10.57,10.57s-4.74,10.57-10.57,10.57S.75,18.41.75,12.58,5.49,2.01,11.32,2.01M11.32,1.26C5.07,1.26,0,6.33,0,12.58s5.07,11.32,11.32,11.32,11.32-5.07,11.32-11.32S17.58,1.26,11.32,1.26h0Z"/>
      <path d="M22.65,2.01c5.83,0,10.57,4.74,10.57,10.57s-4.74,10.57-10.57,10.57-10.57-4.74-10.57-10.57S16.82,2.01,22.65,2.01M22.65,1.26c-6.25,0-11.32,5.07-11.32,11.32s5.07,11.32,11.32,11.32,11.32-5.07,11.32-11.32S28.9,1.26,22.65,1.26h0Z"/>
      <path d="M46.77,22.37c0-.85.68-1.53,1.53-1.53h0c.85,0,1.53.68,1.53,1.53h0c0,.85-.68,1.53-1.53,1.53h0c-.85,0-1.53-.68-1.53-1.53ZM42.64,22.4c-.74-.42-.99-1.36-.56-2.1h0c.42-.73,1.36-.98,2.09-.56h0c.74.43.98,1.37.56,2.09h0c-.29.49-.8.77-1.33.77h0c-.27,0-.53-.06-.77-.2ZM51.87,21.83c-.43-.74-.17-1.68.55-2.09h0c.74-.43,1.68-.17,2.1.55h0c.43.74.17,1.68-.55,2.09h0c-.25.14-.51.2-.77.2h0c-.53,0-1.04-.27-1.33-.76ZM38.49,18.27h0c-.43-.74-.17-1.68.55-2.1h0c.74-.43,1.68-.18,2.09.55h0c.43.74.18,1.67-.55,2.1h0c-.24.14-.51.2-.77.2h0c-.53,0-1.04-.27-1.33-.76ZM56.01,18.8c-.74-.42-.98-1.36-.56-2.08h0c.43-.74,1.36-.99,2.1-.56h0c.74.42.98,1.36.56,2.1h0c-.29.49-.8.77-1.33.77h0c-.27,0-.53-.07-.77-.21ZM36.97,12.61c-.01-.85.67-1.53,1.52-1.53h0c.85,0,1.53.68,1.54,1.52h0c0,.85-.69,1.54-1.53,1.54h0c-.85,0-1.53-.68-1.53-1.53ZM56.55,12.58v-.02h0v-.02c0-.84.67-1.53,1.52-1.53h0c.85,0,1.54.67,1.54,1.52h0v.03h0v.02h0c0,.85-.68,1.53-1.53,1.53h0c-.85,0-1.53-.68-1.53-1.53ZM39.04,9.04c-.74-.43-.99-1.36-.56-2.09h0c.42-.74,1.36-.99,2.09-.56h0c.73.42.98,1.36.56,2.08h0c-.29.5-.8.78-1.33.78h0c-.27,0-.53-.07-.77-.2ZM55.44,8.43c-.43-.74-.18-1.67.54-2.09h0c.74-.43,1.68-.18,2.11.55h0c.42.73.17,1.67-.55,2.09h0c-.24.14-.51.21-.78.21h0c-.52,0-1.04-.28-1.32-.77ZM42.05,4.89c-.43-.74-.18-1.68.55-2.09h0c.74-.43,1.67-.18,2.09.55h0c.43.73.17,1.67-.55,2.09h0c-.24.14-.51.2-.77.2h0c-.53,0-1.04-.28-1.33-.76ZM52.39,5.41h0c-.74-.42-.99-1.36-.57-2.1h0c.42-.73,1.36-.98,2.1-.56h0c.74.42.98,1.36.56,2.09h0c-.28.49-.8.77-1.33.77h0c-.26,0-.52-.06-.77-.2ZM46.73,2.79c0-.85.68-1.53,1.52-1.53h0c.85,0,1.54.67,1.54,1.52h0c0,.85-.68,1.53-1.53,1.54h0c-.85,0-1.53-.68-1.53-1.53Z"/>
      <g>
        <line class="cls-5" x1="187.32" y1="12.58" x2="218.7" y2="12.58"/>
        <line class="cls-3" x1="209.32" y1="21.97" x2="218.7" y2="12.58"/>
        <line class="cls-3" x1="209.32" y1="3.2" x2="218.7" y2="12.58"/>
      </g>
      <text class="cls-1" transform="translate(69.17 10.27)"><tspan x="0" y="0">MODULE B43</tspan><tspan x="0" y="13">PORT: 07</tspan></text>
      <g>
        <line class="cls-4" x1="156.7" y1="12.58" x2="156.7" y2="12.58"/>
        <line class="cls-2" x1="163.98" y1="12.58" x2="167.62" y2="12.58"/>
        <line class="cls-4" x1="171.26" y1="12.58" x2="171.26" y2="12.58"/>
      </g>
    </g>
  </g>
</svg>