<?xml version="1.0" encoding="UTF-8"?>
<svg id="Layer_2" data-name="Layer 2" xmlns="http://www.w3.org/2000/svg" viewBox="0 0 151.23 95.76">
  <defs>
    <style>
      .cls-1 {
        font-family: RobotoMono-Bold, 'Roboto Mono';
        font-variation-settings: 'wght' 700;
        font-weight: 700;
      }

      .cls-1, .cls-2 {
        font-size: 8px;
      }

      .cls-3 {
        letter-spacing: 1.07em;
      }

      .cls-4 {
        letter-spacing: 1.07em;
      }

      .cls-5 {
        letter-spacing: 1.07em;
      }

      .cls-6 {
        letter-spacing: .42em;
      }

      .cls-7 {
        letter-spacing: .42em;
      }

      .cls-8 {
        letter-spacing: .42em;
      }

      .cls-9 {
        letter-spacing: 2.18em;
      }

      .cls-10 {
        letter-spacing: 2.18em;
      }

      .cls-11 {
        fill: none;
        stroke: #000;
        stroke-miterlimit: 10;
        stroke-width: .75px;
      }

      .cls-12 {
        font-family: NotoSansJP-Light, 'Noto Sans JP';
        font-size: 14.74px;
        font-variation-settings: 'wght' 300;
        font-weight: 300;
        glyph-orientation-vertical: 0deg;
        text-orientation: upright;
        writing-mode: tb;
      }

      .cls-13 {
        letter-spacing: -.1em;
      }

      .cls-14 {
        letter-spacing: -.09em;
      }

      .cls-15 {
        letter-spacing: -.06em;
      }

      .cls-16 {
        letter-spacing: -.07em;
      }

      .cls-17 {
        letter-spacing: -.06em;
      }

      .cls-18 {
        letter-spacing: -.05em;
      }

      .cls-19, .cls-2 {
        letter-spacing: -.05em;
      }

      .cls-20 {
        letter-spacing: -.05em;
      }

      .cls-2 {
        font-family: RobotoMono-Regular, 'Roboto Mono';
        font-variation-settings: 'wght' 400;
      }
    </style>
  </defs>
  <g id="Layer_1-2" data-name="Layer 1">
    <g>
      <path d="M140.69,1.63c1.23,0,2.23,1,2.23,2.23s-1,2.23-2.23,2.23h-22.05c-1.23,0-2.23-1-2.23-2.23s1-2.23,2.23-2.23h22.05M140.69.88h-22.05c-1.65,0-2.98,1.33-2.98,2.98s1.33,2.98,2.98,2.98h22.05c1.65,0,2.98-1.33,2.98-2.98s-1.33-2.98-2.98-2.98h0Z"/>
      <path d="M137.94,9.39c1.23,0,2.23,1,2.23,2.23s-1,2.23-2.23,2.23h-16.54c-1.23,0-2.23-1-2.23-2.23s1-2.23,2.23-2.23h16.54M137.94,8.64h-16.54c-1.65,0-2.98,1.33-2.98,2.98s1.33,2.98,2.98,2.98h16.54c1.65,0,2.98-1.33,2.98-2.98s-1.33-2.98-2.98-2.98h0Z"/>
      <path d="M135.18,17.14c1.23,0,2.23,1,2.23,2.23s-1,2.23-2.23,2.23h-11.02c-1.23,0-2.23-1-2.23-2.23s1-2.23,2.23-2.23h11.02M135.18,16.39h-11.02c-1.65,0-2.98,1.33-2.98,2.98s1.33,2.98,2.98,2.98h11.02c1.65,0,2.98-1.33,2.98-2.98h0c0-1.65-1.33-2.98-2.98-2.98h0Z"/>
      <path d="M132.42,24.89c1.23,0,2.23,1,2.23,2.23s-1,2.23-2.23,2.23h-5.51c-1.23,0-2.23-1-2.23-2.23s1-2.23,2.23-2.23h5.51M132.42,24.14h-5.51c-1.65,0-2.98,1.33-2.98,2.98s1.33,2.98,2.98,2.98h5.51c1.65,0,2.98-1.33,2.98-2.98s-1.33-2.98-2.98-2.98h0Z"/>
      <path d="M140.69,63.64c1.23,0,2.23,1,2.23,2.23s-1,2.23-2.23,2.23h-22.05c-1.23,0-2.23-1-2.23-2.23s1-2.23,2.23-2.23h22.05M140.69,62.89h-22.05c-1.65,0-2.98,1.33-2.98,2.98s1.33,2.98,2.98,2.98h22.05c1.65,0,2.98-1.33,2.98-2.98s-1.33-2.98-2.98-2.98h0Z"/>
      <path d="M137.94,55.89c1.23,0,2.23,1,2.23,2.23s-1,2.23-2.23,2.23h-16.54c-1.23,0-2.23-1-2.23-2.23s1-2.23,2.23-2.23h16.54M137.94,55.14h-16.54c-1.65,0-2.98,1.33-2.98,2.98s1.33,2.98,2.98,2.98h16.54c1.65,0,2.98-1.33,2.98-2.98s-1.33-2.98-2.98-2.98h0Z"/>
      <path d="M135.18,48.14c1.23,0,2.23,1,2.23,2.23s-1,2.23-2.23,2.23h-11.02c-1.23,0-2.23-1-2.23-2.23s1-2.23,2.23-2.23h11.02M135.18,47.39h-11.02c-1.65,0-2.98,1.33-2.98,2.98s1.33,2.98,2.98,2.98h11.02c1.65,0,2.98-1.33,2.98-2.98h0c0-1.65-1.33-2.98-2.98-2.98h0Z"/>
      <path d="M132.42,40.39c1.23,0,2.23,1,2.23,2.23s-1,2.23-2.23,2.23h-5.51c-1.23,0-2.23-1-2.23-2.23s1-2.23,2.23-2.23h5.51M132.42,39.64h-5.51c-1.65,0-2.98,1.33-2.98,2.98s1.33,2.98,2.98,2.98h5.51c1.65,0,2.98-1.33,2.98-2.98s-1.33-2.98-2.98-2.98h0Z"/>
      <path d="M129.67,32.64c1.23,0,2.23,1,2.23,2.23s-1,2.23-2.23,2.23-2.23-1-2.23-2.23,1-2.23,2.23-2.23M129.67,31.89c-1.65,0-2.98,1.33-2.98,2.98s1.33,2.98,2.98,2.98,2.98-1.33,2.98-2.98-1.33-2.98-2.98-2.98h0Z"/>
      <path d="M85.69,63.64c1.23,0,2.23,1,2.23,2.23s-1,2.23-2.23,2.23h-22.05c-.73,0-1.41-.36-1.82-.96-.37-.54-.88-.97-1.46-1.27.58-.3,1.09-.73,1.46-1.27.41-.6,1.09-.96,1.82-.96h22.05M9.92,63.64c.73,0,1.41.36,1.82.96.37.54.88.97,1.46,1.27-.58.3-1.09.73-1.46,1.27-.41.6-1.09.96-1.82.96H3.3c-.67,0-1.3-.3-1.73-.82-.43-.53-.59-1.19-.46-1.88.2-1.02,1.17-1.76,2.29-1.76h6.5M85.69,62.89h-22.05c-1.01,0-1.9.51-2.44,1.28-.63.92-1.72,1.42-2.84,1.42H15.2c-1.12,0-2.21-.5-2.84-1.42-.53-.77-1.42-1.28-2.44-1.28H3.42c-1.43,0-2.75.96-3.03,2.36-.38,1.92,1.07,3.6,2.92,3.6h6.62c1.01,0,1.9-.51,2.44-1.28.63-.92,1.72-1.42,2.84-1.42h43.17c1.12,0,2.21.5,2.84,1.42.53.77,1.42,1.28,2.44,1.28h22.05c1.65,0,2.98-1.33,2.98-2.98s-1.33-2.98-2.98-2.98h0Z"/>
      <path d="M82.94,55.89c1.23,0,2.23,1,2.23,2.23s-1,2.23-2.23,2.23h-16.54c-.73,0-1.41-.36-1.82-.96-.37-.54-.88-.97-1.46-1.27.58-.3,1.09-.73,1.46-1.27.41-.6,1.09-.96,1.82-.96h16.54M18.48,55.89c.73,0,1.41.36,1.82.96.37.54.88.97,1.46,1.27-.58.3-1.09.73-1.46,1.27-.41.6-1.09.96-1.82.96H3.42c-1.13,0-2.09-.74-2.29-1.76-.14-.69.02-1.35.46-1.88.43-.52,1.05-.82,1.73-.82h15.18M82.94,55.14h-16.54c-1.01,0-1.9.51-2.44,1.28-.63.92-1.72,1.42-2.84,1.42H23.76c-1.12,0-2.21-.5-2.84-1.42-.53-.77-1.42-1.28-2.44-1.28H3.3c-1.85,0-3.3,1.68-2.92,3.6.28,1.4,1.6,2.36,3.03,2.36h15.06c1.01,0,1.9-.51,2.44-1.28.63-.92,1.72-1.42,2.84-1.42h37.37c1.12,0,2.21.5,2.84,1.42.53.77,1.42,1.28,2.44,1.28h16.54c1.65,0,2.98-1.33,2.98-2.98s-1.33-2.98-2.98-2.98h0Z"/>
      <path d="M80.18,48.14c1.23,0,2.23,1,2.23,2.23s-1,2.23-2.23,2.23h-11.02c-.73,0-1.41-.36-1.82-.96-.37-.54-.88-.97-1.46-1.27.58-.3,1.09-.73,1.46-1.27.41-.6,1.09-.96,1.82-.96h11.02M27.04,48.14c.73,0,1.41.36,1.82.96.37.54.88.97,1.46,1.27-.58.3-1.09.73-1.46,1.27-.41.6-1.09.96-1.82.96H3.42c-1.13,0-2.09-.74-2.29-1.76-.14-.69.02-1.35.46-1.88.43-.52,1.05-.82,1.73-.82h23.73M80.18,47.39h-11.02c-1.01,0-1.9.51-2.44,1.28-.63.92-1.72,1.42-2.84,1.42h-31.56c-1.12,0-2.21-.5-2.84-1.42-.53-.77-1.42-1.28-2.44-1.28H3.3c-1.85,0-3.3,1.68-2.92,3.6.28,1.4,1.6,2.36,3.03,2.36h23.62c1.01,0,1.9-.51,2.44-1.28.63-.92,1.72-1.42,2.84-1.42h31.56c1.12,0,2.21.5,2.84,1.42.53.77,1.42,1.28,2.44,1.28h11.02c1.65,0,2.98-1.33,2.98-2.98h0c0-1.65-1.33-2.98-2.98-2.98h0Z"/>
      <path d="M77.42,40.39c1.23,0,2.23,1,2.23,2.23s-1,2.23-2.23,2.23h-5.51c-.73,0-1.41-.36-1.82-.96-.37-.54-.88-.97-1.46-1.27.58-.3,1.09-.73,1.46-1.27.41-.6,1.09-.96,1.82-.96h5.51M35.6,40.39c.73,0,1.41.36,1.82.96.37.54.88.97,1.46,1.27-.58.3-1.09.73-1.46,1.27-.41.6-1.09.96-1.82.96H3.42c-1.13,0-2.09-.74-2.29-1.76-.14-.69.02-1.35.46-1.88.43-.52,1.05-.82,1.73-.82h32.29M77.42,39.64h-5.51c-1.01,0-1.9.51-2.44,1.28-.63.92-1.72,1.42-2.84,1.42h-25.76c-1.12,0-2.21-.5-2.84-1.42-.53-.77-1.42-1.28-2.44-1.28H3.3c-1.85,0-3.3,1.68-2.92,3.6.28,1.4,1.6,2.36,3.03,2.36h32.18c1.01,0,1.9-.51,2.44-1.28.63-.92,1.72-1.42,2.84-1.42h25.76c1.12,0,2.21.5,2.84,1.42.53.77,1.42,1.28,2.44,1.28h5.51c1.65,0,2.98-1.33,2.98-2.98s-1.33-2.98-2.98-2.98h0Z"/>
      <path d="M44.16,32.64c.73,0,1.41.36,1.82.96.37.54.88.97,1.46,1.27-.58.3-1.09.73-1.46,1.27-.41.6-1.09.96-1.82.96H3.42c-1.13,0-2.09-.74-2.29-1.76-.14-.69.02-1.35.46-1.88.43-.52,1.05-.82,1.73-.82h40.85M74.67,32.64c.16,0,.32.02.48.05,1.02.21,1.75,1.18,1.75,2.33,0,.78-.44,1.49-1.11,1.81-.37.18-.75.26-1.11.26-.72,0-1.37-.33-1.79-.92-.4-.56-.93-1-1.53-1.31.6-.31,1.12-.75,1.53-1.31.42-.58,1.07-.92,1.79-.92M44.16,31.89H3.3c-1.85,0-3.3,1.68-2.92,3.6.28,1.4,1.6,2.36,3.03,2.36h40.74c1.01,0,1.9-.51,2.44-1.28.63-.92,1.72-1.42,2.84-1.42h19.96c1.14,0,2.21.55,2.88,1.48.54.74,1.41,1.23,2.4,1.23.46,0,.95-.1,1.44-.34.95-.45,1.54-1.44,1.54-2.49v-.02c0-1.43-.95-2.76-2.35-3.05-.21-.04-.42-.06-.63-.06-.99,0-1.86.48-2.4,1.23-.67.93-1.74,1.48-2.88,1.48h-19.96c-1.12,0-2.21-.5-2.84-1.42-.53-.77-1.42-1.28-2.44-1.28h0Z"/>
      <path d="M77.42,24.89c1.23,0,2.23,1,2.23,2.23s-1,2.23-2.23,2.23h-5.51c-.73,0-1.41-.36-1.82-.96-.37-.54-.88-.97-1.46-1.27.58-.3,1.09-.73,1.46-1.27.41-.6,1.09-.96,1.82-.96h5.51M35.6,24.89c.73,0,1.41.36,1.82.96.37.54.88.97,1.46,1.27-.58.3-1.09.73-1.46,1.27-.41.6-1.09.96-1.82.96H3.42c-1.13,0-2.09-.74-2.29-1.76-.14-.69.02-1.35.46-1.88.43-.52,1.05-.82,1.73-.82h32.29M77.42,24.14h-5.51c-1.01,0-1.9.51-2.44,1.28-.63.92-1.72,1.42-2.84,1.42h-25.76c-1.12,0-2.21-.5-2.84-1.42-.53-.77-1.42-1.28-2.44-1.28H3.3C1.46,24.14,0,25.82.39,27.73c.28,1.4,1.6,2.36,3.03,2.36h32.18c1.01,0,1.9-.51,2.44-1.28.63-.92,1.72-1.42,2.84-1.42h25.76c1.12,0,2.21.5,2.84,1.42.53.77,1.42,1.28,2.44,1.28h5.51c1.65,0,2.98-1.33,2.98-2.98s-1.33-2.98-2.98-2.98h0Z"/>
      <path d="M80.18,17.14c.67,0,1.3.3,1.73.82.43.53.59,1.2.46,1.88-.2,1.02-1.17,1.76-2.29,1.76h-10.91c-.73,0-1.41-.36-1.82-.96-.37-.54-.88-.97-1.46-1.27.58-.3,1.09-.73,1.46-1.27.41-.6,1.09-.96,1.82-.96h11.02M27.04,17.14c.73,0,1.41.36,1.82.96.37.54.88.97,1.46,1.27-.58.3-1.09.73-1.46,1.27-.41.6-1.09.96-1.82.96H3.42c-1.13,0-2.09-.74-2.29-1.76-.14-.69.02-1.35.46-1.88.43-.52,1.05-.82,1.73-.82h23.73M80.18,16.39h-11.02c-1.01,0-1.9.51-2.44,1.28-.63.92-1.72,1.42-2.84,1.42h-31.56c-1.12,0-2.21-.5-2.84-1.42-.53-.77-1.42-1.28-2.44-1.28H3.3C1.46,16.39,0,18.07.39,19.98c.28,1.4,1.6,2.36,3.03,2.36h23.62c1.01,0,1.9-.51,2.44-1.28.63-.92,1.72-1.42,2.84-1.42h31.56c1.12,0,2.21.5,2.84,1.42.53.77,1.42,1.28,2.44,1.28h10.91c1.43,0,2.75-.96,3.03-2.36.38-1.92-1.07-3.6-2.92-3.6h0Z"/>
      <path d="M82.94,9.39c.67,0,1.3.3,1.73.82.43.53.59,1.19.46,1.88-.2,1.02-1.17,1.76-2.29,1.76h-16.42c-.73,0-1.41-.36-1.82-.96-.37-.54-.88-.97-1.46-1.27.58-.3,1.09-.73,1.46-1.27.41-.6,1.09-.96,1.82-.96h16.54M18.48,9.39c.73,0,1.41.36,1.82.96.37.54.88.97,1.46,1.27-.58.3-1.09.73-1.46,1.27-.41.6-1.09.96-1.82.96H3.42c-1.13,0-2.09-.74-2.29-1.76-.14-.69.02-1.35.46-1.88.43-.52,1.05-.82,1.73-.82h15.18M82.94,8.64h-16.54c-1.01,0-1.9.51-2.44,1.28-.63.92-1.72,1.42-2.84,1.42H23.76c-1.12,0-2.21-.5-2.84-1.42-.53-.77-1.42-1.28-2.44-1.28H3.3C1.46,8.64,0,10.32.39,12.23c.28,1.4,1.6,2.36,3.03,2.36h15.06c1.01,0,1.9-.51,2.44-1.28.63-.92,1.72-1.42,2.84-1.42h37.37c1.12,0,2.21.5,2.84,1.42.53.77,1.42,1.28,2.44,1.28h16.42c1.43,0,2.75-.96,3.03-2.36.38-1.92-1.07-3.6-2.92-3.6h0Z"/>
      <path d="M85.69,1.63c.67,0,1.3.3,1.73.82.43.53.59,1.19.46,1.88-.2,1.02-1.17,1.76-2.29,1.76h-21.94c-.73,0-1.41-.36-1.82-.96-.37-.54-.88-.97-1.46-1.27.58-.3,1.09-.73,1.46-1.27.41-.6,1.09-.96,1.82-.96h22.05M9.92,1.63c.73,0,1.41.36,1.82.96.37.54.88.97,1.46,1.27-.58.3-1.09.73-1.46,1.27-.41.6-1.09.96-1.82.96H3.42c-1.13,0-2.09-.74-2.29-1.76-.14-.69.03-1.35.46-1.88.43-.52,1.05-.82,1.73-.82h6.62M85.69.88h-22.05c-1.01,0-1.9.51-2.44,1.28-.63.92-1.72,1.42-2.84,1.42H15.2c-1.12,0-2.21-.5-2.84-1.42-.53-.77-1.42-1.28-2.44-1.28H3.3C1.46.88,0,2.56.39,4.48c.28,1.4,1.6,2.36,3.03,2.36h6.5c1.01,0,1.9-.51,2.44-1.28.63-.92,1.72-1.42,2.84-1.42h43.17c1.12,0,2.21.5,2.84,1.42.53.77,1.42,1.28,2.44,1.28h21.94c1.43,0,2.75-.96,3.03-2.36.38-1.92-1.07-3.6-2.92-3.6h0Z"/>
      <text class="cls-12" transform="translate(101.94 .56)"><tspan class="cls-17" x="0" y="0">オ</tspan><tspan class="cls-15" x="0" y="13.92">フ</tspan><tspan class="cls-13" x="0" y="27.78">ラ</tspan><tspan class="cls-14" x="0" y="41">イ</tspan><tspan class="cls-16" x="0" y="54.48">ン</tspan></text>
      <text class="cls-1" transform="translate(0 79.59)"><tspan class="cls-20" x="0" y="0">NETWORK</tspan><tspan class="cls-9" x="30.81" y="0"> </tspan><tspan class="cls-20" x="53.02" y="0">NODE</tspan><tspan class="cls-10" x="70.63" y="0"> </tspan><tspan class="cls-19" x="92.85" y="0">—</tspan><tspan class="cls-10" x="97.25" y="0"> </tspan><tspan class="cls-19" x="119.46" y="0">OFFLINE</tspan><tspan class="cls-20" x="0" y="7">SIGNAL:</tspan><tspan class="cls-5" x="30.81" y="7"> </tspan><tspan class="cls-20" x="44.17" y="7">LOST</tspan><tspan class="cls-5" x="61.77" y="7"> </tspan><tspan class="cls-18" x="75.13" y="7">–</tspan><tspan class="cls-4" x="79.54" y="7"> </tspan><tspan class="cls-18" x="92.9" y="7">VOLTAGE:</tspan><tspan class="cls-3" x="128.11" y="7"> </tspan><tspan class="cls-19" x="141.47" y="7">0V</tspan><tspan class="cls-20" x="0" y="14">0.008</tspan><tspan class="cls-8" x="22" y="14"> </tspan><tspan class="cls-20" x="30.18" y="14">/</tspan><tspan class="cls-8" x="34.58" y="14"> </tspan><tspan class="cls-20" x="42.76" y="14">0.443</tspan><tspan class="cls-7" x="64.76" y="14"> </tspan><tspan class="cls-19" x="72.93" y="14">/</tspan><tspan class="cls-7" x="77.33" y="14"> </tspan><tspan class="cls-19" x="85.51" y="14">0.201</tspan><tspan class="cls-6" x="107.51" y="14"> </tspan><tspan class="cls-18" x="115.69" y="14">/</tspan><tspan class="cls-6" x="120.09" y="14"> </tspan><tspan class="cls-18" x="128.27" y="14">0.992</tspan></text>
      <path d="M85.69,32.64c1.23,0,2.23,1,2.23,2.23s-1,2.23-2.23,2.23-2.23-1-2.23-2.23,1-2.23,2.23-2.23M85.69,31.89c-1.65,0-2.98,1.33-2.98,2.98s1.33,2.98,2.98,2.98,2.98-1.33,2.98-2.98-1.33-2.98-2.98-2.98h0Z"/>
      <path d="M118.64,32.64c1.23,0,2.23,1,2.23,2.23s-1,2.23-2.23,2.23-2.23-1-2.23-2.23,1-2.23,2.23-2.23M118.64,31.89c-1.65,0-2.98,1.33-2.98,2.98s1.33,2.98,2.98,2.98,2.98-1.33,2.98-2.98-1.33-2.98-2.98-2.98h0Z"/>
      <text class="cls-2" transform="translate(146.43 6.84)"><tspan x="0" y="0">1</tspan></text>
      <text class="cls-2" transform="translate(143.67 14.59)"><tspan x="0" y="0">2</tspan></text>
      <text class="cls-2" transform="translate(140.86 22.35)"><tspan x="0" y="0">3</tspan></text>
      <text class="cls-2" transform="translate(138.16 30.1)"><tspan x="0" y="0">4</tspan></text>
      <text class="cls-2" transform="translate(135.4 37.85)"><tspan x="0" y="0">5</tspan></text>
      <text class="cls-2" transform="translate(138.16 45.6)"><tspan x="0" y="0">6</tspan></text>
      <text class="cls-2" transform="translate(140.86 53.35)"><tspan x="0" y="0">7</tspan></text>
      <text class="cls-2" transform="translate(143.67 61.1)"><tspan x="0" y="0">8</tspan></text>
      <text class="cls-2" transform="translate(146.43 68.85)"><tspan x="0" y="0">9</tspan></text>
      <line class="cls-11" x1="143.6" y1="34.87" x2="150.67" y2="34.87"/>
      <line class="cls-11" x1="147.14" y1="24.14" x2="147.14" y2="45.6"/>
    </g>
  </g>
</svg>