<?xml version="1.0" encoding="UTF-8"?>
<svg id="Layer_2" data-name="Layer 2" xmlns="http://www.w3.org/2000/svg" viewBox="0 0 158.78 148.66">
  <defs>
    <style>
      .cls-1 {
        font-family: RobotoMono-Medium, 'Roboto Mono';
        font-size: 15px;
        font-variation-settings: 'wght' 500;
        font-weight: 500;
      }

      .cls-2 {
        stroke-width: .75px;
      }

      .cls-2, .cls-3 {
        fill: none;
        stroke: #000;
        stroke-miterlimit: 10;
      }

      .cls-4 {
        letter-spacing: -.02em;
      }

      .cls-5 {
        letter-spacing: -.02em;
      }

      .cls-3 {
        stroke-linecap: round;
        stroke-width: 3px;
      }

      .cls-6 {
        letter-spacing: -.05em;
      }

      .cls-7 {
        font-family: RobotoMono-Regular, 'Roboto Mono';
        font-size: 8px;
        font-variation-settings: 'wght' 400;
        letter-spacing: -.05em;
      }
    </style>
  </defs>
  <g id="Layer_1-2" data-name="Layer 1">
    <g>
      <line class="cls-2" x1="1.12" y1="75.86" x2="157.66" y2="75.86"/>
      <g>
        <line class="cls-2" x1="1.12" y1="72.34" x2="1.12" y2="79.38"/>
        <line class="cls-2" x1="32.42" y1="72.34" x2="32.42" y2="79.38"/>
        <line class="cls-2" x1="63.73" y1="72.34" x2="63.73" y2="79.38"/>
        <line class="cls-2" x1="95.04" y1="72.34" x2="95.04" y2="79.38"/>
        <line class="cls-2" x1="126.35" y1="72.34" x2="126.35" y2="79.38"/>
        <line class="cls-2" x1="157.66" y1="72.34" x2="157.66" y2="79.38"/>
      </g>
      <g>
        <line class="cls-2" x1="1.12" y1="74" x2="1.12" y2="77.72"/>
        <line class="cls-2" x1="11.55" y1="74" x2="11.55" y2="77.72"/>
        <line class="cls-2" x1="21.99" y1="74" x2="21.99" y2="77.72"/>
        <line class="cls-2" x1="32.42" y1="74" x2="32.42" y2="77.72"/>
        <line class="cls-2" x1="42.86" y1="74" x2="42.86" y2="77.72"/>
        <line class="cls-2" x1="53.3" y1="74" x2="53.3" y2="77.72"/>
        <line class="cls-2" x1="63.73" y1="74" x2="63.73" y2="77.72"/>
        <line class="cls-2" x1="74.17" y1="74" x2="74.17" y2="77.72"/>
        <line class="cls-2" x1="84.6" y1="74" x2="84.6" y2="77.72"/>
        <line class="cls-2" x1="95.04" y1="74" x2="95.04" y2="77.72"/>
        <line class="cls-2" x1="105.48" y1="74" x2="105.48" y2="77.72"/>
        <line class="cls-2" x1="115.91" y1="74" x2="115.91" y2="77.72"/>
        <line class="cls-2" x1="126.35" y1="74" x2="126.35" y2="77.72"/>
        <line class="cls-2" x1="136.79" y1="74" x2="136.79" y2="77.72"/>
        <line class="cls-2" x1="147.22" y1="74" x2="147.22" y2="77.72"/>
        <line class="cls-2" x1="157.66" y1="74" x2="157.66" y2="77.72"/>
      </g>
      <g>
        <g>
          <rect x="8.81" y="102.86" width="4.3" height="26.01" rx="2.1" ry="2.1" transform="translate(-78.72 41.68) rotate(-45)"/>
          <rect x="31.76" y="125.81" width="4.3" height="26.01" rx="2.1" ry="2.1" transform="translate(-88.23 64.63) rotate(-45)"/>
          <rect x="8.81" y="125.81" width="4.3" height="26.01" rx="2.1" ry="2.1" transform="translate(-79.46 244.72) rotate(-135)"/>
          <rect x="31.76" y="102.86" width="4.3" height="26.01" rx="2.1" ry="2.1" transform="translate(-24.04 221.77) rotate(-135)"/>
        </g>
        <g>
          <rect x="65.76" y="102.86" width="4.3" height="26.01" rx="2.1" ry="2.1" transform="translate(-62.04 81.95) rotate(-45)"/>
          <rect x="88.71" y="125.81" width="4.3" height="26.01" rx="2.1" ry="2.1" transform="translate(-71.55 104.91) rotate(-45)"/>
          <rect x="65.76" y="125.81" width="4.3" height="26.01" rx="2.1" ry="2.1" transform="translate(17.77 284.99) rotate(-135)"/>
          <rect x="88.71" y="102.86" width="4.3" height="26.01" rx="2.1" ry="2.1" transform="translate(73.18 262.04) rotate(-135)"/>
        </g>
        <g>
          <rect x="122.71" y="102.86" width="4.3" height="26.01" rx="2.1" ry="2.1" transform="translate(-45.36 122.23) rotate(-45)"/>
          <rect x="145.66" y="125.81" width="4.3" height="26.01" rx="2.1" ry="2.1" transform="translate(-54.87 145.18) rotate(-45)"/>
          <rect x="122.71" y="125.81" width="4.3" height="26.01" rx="2.1" ry="2.1" transform="translate(114.99 325.26) rotate(-135)"/>
          <rect x="145.66" y="102.86" width="4.3" height="26.01" rx="2.1" ry="2.1" transform="translate(170.4 302.31) rotate(-135)"/>
        </g>
      </g>
      <g>
        <g>
          <g id="_Grid_Repeat_" data-name="&amp;lt;Grid Repeat&amp;gt;">
            <circle cx="153.85" cy="26.72" r="3.8"/>
          </g>
          <g id="_Grid_Repeat_-2" data-name="&amp;lt;Grid Repeat&amp;gt;">
            <circle cx="130.94" cy="26.72" r="3.8"/>
          </g>
          <g id="_Grid_Repeat_-3" data-name="&amp;lt;Grid Repeat&amp;gt;">
            <circle cx="119.48" cy="26.72" r="3.8"/>
          </g>
          <g id="_Grid_Repeat_-4" data-name="&amp;lt;Grid Repeat&amp;gt;">
            <circle cx="96.57" cy="26.72" r="3.8"/>
          </g>
          <g id="_Grid_Repeat_-5" data-name="&amp;lt;Grid Repeat&amp;gt;">
            <circle cx="85.11" cy="26.72" r="3.8"/>
          </g>
          <g id="_Grid_Repeat_-6" data-name="&amp;lt;Grid Repeat&amp;gt;">
            <circle cx="73.66" cy="26.72" r="3.8"/>
          </g>
          <g id="_Grid_Repeat_-7" data-name="&amp;lt;Grid Repeat&amp;gt;">
            <circle cx="39.29" cy="26.72" r="3.8"/>
          </g>
          <g id="_Grid_Repeat_-8" data-name="&amp;lt;Grid Repeat&amp;gt;">
            <circle cx="27.83" cy="26.72" r="3.8"/>
          </g>
          <g id="_Grid_Repeat_-9" data-name="&amp;lt;Grid Repeat&amp;gt;">
            <circle cx="4.92" cy="26.72" r="3.8"/>
          </g>
          <g id="_Grid_Repeat_-10" data-name="&amp;lt;Grid Repeat&amp;gt;">
            <circle cx="153.85" cy="15.26" r="3.8"/>
          </g>
          <g id="_Grid_Repeat_-11" data-name="&amp;lt;Grid Repeat&amp;gt;">
            <circle cx="142.4" cy="15.26" r="3.8"/>
          </g>
          <g id="_Grid_Repeat_-12" data-name="&amp;lt;Grid Repeat&amp;gt;">
            <circle cx="130.94" cy="15.26" r="3.8"/>
          </g>
          <g id="_Grid_Repeat_-13" data-name="&amp;lt;Grid Repeat&amp;gt;">
            <circle cx="108.03" cy="15.26" r="3.8"/>
          </g>
          <g id="_Grid_Repeat_-14" data-name="&amp;lt;Grid Repeat&amp;gt;">
            <circle cx="96.57" cy="15.26" r="3.8"/>
          </g>
          <g id="_Grid_Repeat_-15" data-name="&amp;lt;Grid Repeat&amp;gt;">
            <circle cx="73.66" cy="15.26" r="3.8"/>
          </g>
          <g id="_Grid_Repeat_-16" data-name="&amp;lt;Grid Repeat&amp;gt;">
            <circle cx="62.2" cy="15.26" r="3.8"/>
          </g>
          <g id="_Grid_Repeat_-17" data-name="&amp;lt;Grid Repeat&amp;gt;">
            <circle cx="50.75" cy="15.26" r="3.8"/>
          </g>
          <g id="_Grid_Repeat_-18" data-name="&amp;lt;Grid Repeat&amp;gt;">
            <circle cx="50.75" cy="26.72" r="3.8"/>
          </g>
          <g id="_Grid_Repeat_-19" data-name="&amp;lt;Grid Repeat&amp;gt;">
            <circle cx="27.83" cy="15.26" r="3.8"/>
          </g>
          <g id="_Grid_Repeat_-20" data-name="&amp;lt;Grid Repeat&amp;gt;">
            <circle cx="4.92" cy="15.26" r="3.8"/>
          </g>
          <g id="_Grid_Repeat_-21" data-name="&amp;lt;Grid Repeat&amp;gt;">
            <circle cx="142.4" cy="3.8" r="3.8"/>
          </g>
          <g id="_Grid_Repeat_-22" data-name="&amp;lt;Grid Repeat&amp;gt;">
            <circle cx="119.48" cy="3.8" r="3.8"/>
          </g>
          <g id="_Grid_Repeat_-23" data-name="&amp;lt;Grid Repeat&amp;gt;">
            <circle cx="108.03" cy="3.8" r="3.8"/>
          </g>
          <g id="_Grid_Repeat_-24" data-name="&amp;lt;Grid Repeat&amp;gt;">
            <circle cx="85.11" cy="3.8" r="3.8"/>
          </g>
          <g id="_Grid_Repeat_-25" data-name="&amp;lt;Grid Repeat&amp;gt;">
            <circle cx="62.2" cy="3.8" r="3.8"/>
          </g>
          <g id="_Grid_Repeat_-26" data-name="&amp;lt;Grid Repeat&amp;gt;">
            <circle cx="39.29" cy="3.8" r="3.8"/>
          </g>
          <g id="_Grid_Repeat_-27" data-name="&amp;lt;Grid Repeat&amp;gt;">
            <circle cx="27.83" cy="3.8" r="3.8"/>
          </g>
          <g id="_Grid_Repeat_-28" data-name="&amp;lt;Grid Repeat&amp;gt;">
            <circle cx="16.38" cy="3.8" r="3.8"/>
          </g>
        </g>
        <text class="cls-7" transform="translate(1.12 44.45)"><tspan x="0" y="0">SECONDARY </tspan><tspan x="0" y="7">INTERFACE</tspan><tspan x="0" y="14">OFFLINE</tspan><tspan x="0" y="21">CODE: 0x7B0A</tspan></text>
        <g>
          <line class="cls-2" x1="115.91" y1="65.52" x2="115.91" y2="37.8"/>
          <line class="cls-2" x1="130.42" y1="51.66" x2="69.15" y2="51.66"/>
          <line class="cls-2" x1="125.71" y1="61.46" x2="106.11" y2="41.86"/>
          <line class="cls-2" x1="125.71" y1="41.86" x2="106.11" y2="61.46"/>
        </g>
        <g>
          <line class="cls-3" x1="148.24" y1="56.1" x2="139.36" y2="47.22"/>
          <line class="cls-3" x1="148.24" y1="47.22" x2="139.36" y2="56.1"/>
        </g>
        <path d="M143.8,38.55c7.23,0,13.11,5.88,13.11,13.11s-5.88,13.11-13.11,13.11-13.11-5.88-13.11-13.11,5.88-13.11,13.11-13.11M143.8,37.8c-7.65,0-13.86,6.2-13.86,13.86s6.2,13.86,13.86,13.86,13.86-6.2,13.86-13.86-6.2-13.86-13.86-13.86h0Z"/>
        <path d="M64.58,47.13c2.5,0,4.53,2.03,4.53,4.53s-2.03,4.53-4.53,4.53-4.53-2.03-4.53-4.53,2.03-4.53,4.53-4.53M64.58,46.38c-2.91,0-5.28,2.36-5.28,5.28s2.36,5.28,5.28,5.28,5.28-2.36,5.28-5.28-2.36-5.28-5.28-5.28h0Z"/>
      </g>
      <text class="cls-1" transform="translate(0 97.45)"><tspan class="cls-6" x="0" y="0">CHANNEL</tspan><tspan class="cls-5" x="57.76" y="0"> </tspan><tspan class="cls-6" x="66.43" y="0">01</tspan><tspan class="cls-5" x="82.93" y="0"> </tspan><tspan class="cls-6" x="91.6" y="0">—</tspan><tspan class="cls-4" x="99.85" y="0"> </tspan><tspan class="cls-6" x="108.52" y="0">ACTIVE</tspan></text>
    </g>
  </g>
</svg>