<?xml version="1.0" encoding="UTF-8"?>
<svg id="Layer_2" data-name="Layer 2" xmlns="http://www.w3.org/2000/svg" viewBox="0 0 250.36 153.63">
  <defs>
    <style>
      .cls-1 {
        font-family: RobotoMono-Regular, 'Roboto Mono';
        font-size: 12px;
        font-variation-settings: 'wght' 400;
        letter-spacing: -.05em;
      }

      .cls-2 {
        font-family: RobotoMono-Medium, 'Roboto Mono';
        font-size: 8px;
        font-variation-settings: 'wght' 500;
        font-weight: 500;
      }

      .cls-3, .cls-4 {
        fill: none;
        stroke: #000;
        stroke-miterlimit: 10;
        stroke-width: .75px;
      }

      .cls-4 {
        stroke-linecap: square;
      }
    </style>
  </defs>
  <g id="Layer_1-2" data-name="Layer 1">
    <g>
      <ellipse class="cls-3" cx="130.08" cy="9.75" rx="4.49" ry="9.09"/>
      <path d="M40.87,27.2c-5.99,0-10.86-4.87-10.86-10.86V0h-2.73v16.34c0,5.99-4.87,10.86-10.86,10.86H.08v2.73h16.34c5.99,0,10.86,4.87,10.86,10.86v16.34h2.73v-16.34c0-5.99,4.87-10.86,10.86-10.86h94.2v-2.73H40.87Z"/>
      <text class="cls-1" transform="translate(38.3 65.64)"><tspan x="0" y="0">CHANNEL 01 — ACTIVE</tspan><tspan x="0" y="14">BANDWIDTH: 1.2GBPS // TEMP: 38°C</tspan><tspan x="0" y="28">– 7.2 – 0.04 – 99.1 – 3.8</tspan><tspan x="0" y="42">• 001 / • 27 / • 44 / • 903</tspan></text>
      <text class="cls-2" transform="translate(127.67 12.65)"><tspan x="0" y="0">H</tspan></text>
      <ellipse class="cls-3" cx="121.09" cy="9.75" rx="4.49" ry="9.09"/>
      <text class="cls-2" transform="translate(118.69 12.65)"><tspan x="0" y="0">P</tspan></text>
      <ellipse class="cls-3" cx="14.06" cy="9.75" rx="4.49" ry="9.09"/>
      <text class="cls-2" transform="translate(11.66 12.65)"><tspan x="0" y="0">K</tspan></text>
      <ellipse class="cls-3" cx="5.07" cy="9.75" rx="4.49" ry="9.09"/>
      <text class="cls-2" transform="translate(2.67 12.65)"><tspan x="0" y="0">V</tspan></text>
      <g>
        <path d="M237.88,3.18c.15,0,.29-.02.44-.07.36-.12.66-.37.83-.71.17-.34.2-.72.08-1.08-.25-.74-1.05-1.15-1.79-.9-.36.12-.65.37-.83.71-.17.34-.2.72-.08,1.08.19.59.73.98,1.35.98Z"/>
        <path d="M238.34,16.44c-.36-.12-.75-.08-1.08.09-.34.17-.59.47-.71.83-.24.75.17,1.55.92,1.79.14.04.28.07.44.07.62,0,1.16-.4,1.35-.98.12-.36.09-.75-.09-1.08-.17-.34-.47-.59-.83-.7Z"/>
        <path d="M232.85,13.59c-.31.22-.51.55-.57.93-.06.38.03.75.26,1.06h0c.27.37.7.58,1.15.58.31,0,.6-.1.84-.27.63-.46.77-1.35.31-1.99-.46-.63-1.35-.77-1.99-.31Z"/>
        <path d="M233.49,9.78c0-.78-.64-1.42-1.42-1.42s-1.42.64-1.42,1.42h0c0,.78.64,1.42,1.42,1.42.38,0,.74-.15,1-.42.27-.27.42-.63.41-1.01Z"/>
        <path d="M233.67,6.25c.46,0,.89-.22,1.16-.59.22-.31.31-.68.25-1.06s-.26-.7-.57-.93c-.31-.22-.68-.31-1.06-.25-.37.06-.7.26-.92.57-.22.31-.32.68-.26,1.06.06.38.26.71.57.93.25.18.53.27.83.27Z"/>
        <path d="M246.18,13.88c-.46.63-.32,1.53.31,1.99h0c.24.18.54.27.83.27.46,0,.89-.22,1.15-.59.46-.63.32-1.52-.31-1.99-.63-.46-1.53-.32-1.99.31Z"/>
        <path d="M250.36,9.73c0-.38-.15-.74-.42-1-.27-.27-.62-.41-1-.41h0c-.78,0-1.42.64-1.41,1.44v.02c0,.78.64,1.42,1.42,1.42s1.39-.6,1.42-1.36h0s0-.1,0-.1Z"/>
        <path d="M242.65,3.09c.14.04.28.07.43.07.62,0,1.16-.4,1.36-.99.24-.75-.18-1.55-.92-1.78-.37-.12-.75-.08-1.09.09-.34.17-.59.47-.7.83-.24.75.17,1.55.92,1.79Z"/>
        <path d="M242.68,16.43c-.74.24-1.15,1.05-.91,1.79h0c.19.59.73.98,1.35.98.15,0,.3-.02.44-.07.36-.12.66-.37.83-.71.17-.34.2-.72.09-1.09-.24-.74-1.05-1.16-1.79-.91Z"/>
        <path d="M247.31,6.21c.3,0,.6-.1.84-.27.31-.22.51-.56.57-.93.06-.38-.04-.75-.26-1.05-.22-.31-.56-.51-.93-.57-.38-.06-.75.03-1.05.26-.31.23-.51.56-.57.93-.06.37.03.75.26,1.05.27.37.7.58,1.15.58Z"/>
      </g>
      <g>
        <line class="cls-4" x1="240.51" y1="135.08" x2="240.51" y2="153.26"/>
        <line class="cls-4" x1="231.42" y1="144.17" x2="249.6" y2="144.17"/>
      </g>
      <g>
        <line class="cls-4" x1="9.47" y1="135.08" x2="9.47" y2="153.26"/>
        <line class="cls-4" x1=".38" y1="144.17" x2="18.56" y2="144.17"/>
      </g>
      <g>
        <line class="cls-4" x1="9.47" y1="56.64" x2="9.47" y2="74.82"/>
        <line class="cls-4" x1=".38" y1="65.73" x2="18.56" y2="65.73"/>
      </g>
      <g>
        <line class="cls-4" x1="47.39" y1="135.08" x2="47.39" y2="153.26"/>
        <line class="cls-4" x1="38.3" y1="144.17" x2="56.48" y2="144.17"/>
      </g>
      <line class="cls-4" x1="76.22" y1="144.17" x2="211.67" y2="144.17"/>
      <rect x="230.65" y="27.2" width="19.71" height="2.73"/>
    </g>
  </g>
</svg>