<?xml version="1.0" encoding="UTF-8"?>
<svg id="Layer_2" data-name="Layer 2" xmlns="http://www.w3.org/2000/svg" viewBox="0 0 151.34 151.35">
  <defs>
    <style>
      .cls-1, .cls-2 {
        font-family: RobotoMono-Regular, 'Roboto Mono';
        font-size: 8px;
        font-variation-settings: 'wght' 400;
      }

      .cls-3 {
        fill: none;
        stroke: #000;
        stroke-miterlimit: 10;
        stroke-width: .75px;
      }

      .cls-4 {
        font-family: RobotoMono-Bold, 'Roboto Mono';
        font-size: 21px;
        font-variation-settings: 'wght' 700;
        font-weight: 700;
        letter-spacing: -.05em;
      }

      .cls-2 {
        letter-spacing: -.05em;
      }
    </style>
  </defs>
  <g id="Layer_1-2" data-name="Layer 1">
    <g>
      <text class="cls-4" transform="translate(18.37 58.4)"><tspan x="0" y="0">SCAN</tspan></text>
      <text class="cls-1" transform="translate(75.63 6.8) rotate(1.93)"><tspan x="0" y="0">•</tspan></text>
      <text class="cls-1" transform="translate(79.94 6.93) rotate(5.48)"><tspan x="0" y="0"> </tspan></text>
      <text class="cls-1" transform="translate(87.08 7.74) rotate(11.47)"><tspan x="0" y="0">0</tspan></text>
      <text class="cls-1" transform="translate(91.3 8.58) rotate(15.08)"><tspan x="0" y="0">.</tspan></text>
      <text class="cls-1" transform="translate(95.47 9.69) rotate(18.7)"><tspan x="0" y="0">0</tspan></text>
      <text class="cls-1" transform="translate(99.56 11.06) rotate(22.31)"><tspan x="0" y="0">3</tspan></text>
      <text class="cls-1" transform="translate(103.56 12.68) rotate(25.92)"><tspan x="0" y="0"> </tspan></text>
      <text class="cls-1" transform="translate(109.96 15.93) rotate(31.91)"><tspan x="0" y="0">“</tspan></text>
      <text class="cls-1" transform="translate(113.64 18.21) rotate(35.5)"><tspan x="0" y="0"> </tspan></text>
      <text class="cls-1" transform="translate(119.4 22.46) rotate(41.44)"><tspan x="0" y="0">4</tspan></text>
      <text class="cls-1" transform="translate(122.64 25.31) rotate(45)"><tspan x="0" y="0">4</tspan></text>
      <text class="cls-1" transform="translate(125.72 28.36) rotate(48.59)"><tspan x="0" y="0"> </tspan></text>
      <text class="cls-1" transform="translate(130.38 33.83) rotate(54.54)"><tspan x="0" y="0">—</tspan></text>
      <text class="cls-1" transform="translate(132.89 37.33) rotate(58.11)"><tspan x="0" y="0">—</tspan></text>
      <text class="cls-1" transform="translate(135.18 40.98) rotate(61.71)"><tspan x="0" y="0">—</tspan></text>
      <text class="cls-1" transform="translate(137.25 44.79) rotate(65.32)"><tspan x="0" y="0">—</tspan></text>
      <text class="cls-1" transform="translate(139.05 48.69) rotate(68.92)"><tspan x="0" y="0">—</tspan></text>
      <text class="cls-1" transform="translate(140.62 52.71) rotate(72.55)"><tspan x="0" y="0">—</tspan></text>
      <text class="cls-1" transform="translate(141.93 56.81) rotate(76.15)"><tspan x="0" y="0">—</tspan></text>
      <text class="cls-1" transform="translate(142.98 61) rotate(79.76)"><tspan x="0" y="0">—</tspan></text>
      <text class="cls-1" transform="translate(143.76 65.25) rotate(83.37)"><tspan x="0" y="0"> </tspan></text>
      <text class="cls-1" transform="translate(144.46 72.39) rotate(89.07)"><tspan x="0" y="0">1</tspan></text>
      <text class="cls-1" transform="translate(144.53 76.71) rotate(92.81)"><tspan x="0" y="0">8</tspan></text>
      <text class="cls-1" transform="translate(144.34 81.03) rotate(96.39)"><tspan x="0" y="0"> </tspan></text>
      <text class="cls-1" transform="translate(143.42 88.15) rotate(102.37)"><tspan x="0" y="0">“</tspan></text>
      <text class="cls-1" transform="translate(142.51 92.36) rotate(105.99)"><tspan x="0" y="0"> </tspan></text>
      <text class="cls-1" transform="translate(140.41 99.22) rotate(112)"><tspan x="0" y="0">0</tspan></text>
      <text class="cls-1" transform="translate(138.82 103.21) rotate(115.6)"><tspan x="0" y="0">0</tspan></text>
      <text class="cls-1" transform="translate(136.96 107.12) rotate(119.21)"><tspan x="0" y="0">2</tspan></text>
      <text class="cls-1" transform="translate(134.87 110.89) rotate(122.79)"><tspan x="0" y="0"> </tspan></text>
      <text class="cls-1" transform="translate(130.87 116.87) rotate(128.76)"><tspan x="0" y="0">•</tspan></text>
      <text class="cls-1" transform="translate(128.18 120.24) rotate(132.33)"><tspan x="0" y="0"> </tspan></text>
      <text class="cls-1" transform="translate(123.26 125.46) rotate(138.27)"><tspan x="0" y="0">1</tspan></text>
      <text class="cls-1" transform="translate(120.05 128.34) rotate(141.84)"><tspan x="0" y="0">2</tspan></text>
      <text class="cls-1" transform="translate(116.66 131.03) rotate(145.42)"><tspan x="0" y="0"> </tspan></text>
      <text class="cls-1" transform="translate(110.7 134.99) rotate(151.38)"><tspan x="0" y="0">—</tspan></text>
      <text class="cls-1" transform="translate(106.91 137.07) rotate(154.99)"><tspan x="0" y="0">—</tspan></text>
      <text class="cls-1" transform="translate(103 138.92) rotate(158.61)"><tspan x="0" y="0">—</tspan></text>
      <text class="cls-1" transform="translate(99 140.5) rotate(162.21)"><tspan x="0" y="0">—</tspan></text>
      <text class="cls-1" transform="translate(94.89 141.83) rotate(165.84)"><tspan x="0" y="0">—</tspan></text>
      <text class="cls-1" transform="translate(90.72 142.9) rotate(169.44)"><tspan x="0" y="0">—</tspan></text>
      <text class="cls-1" transform="translate(86.47 143.71) rotate(173.05)"><tspan x="0" y="0">—</tspan></text>
      <text class="cls-1" transform="translate(82.18 144.25) rotate(176.62)"><tspan x="0" y="0">—</tspan></text>
      <text class="cls-1" transform="translate(77.87 144.55) rotate(-179.07)"><tspan x="0" y="0"> </tspan></text>
      <text class="cls-1" transform="translate(70.69 144.37) rotate(-173.93)"><tspan x="0" y="0">0</tspan></text>
      <text class="cls-1" transform="translate(66.41 143.93) rotate(-170.34)"><tspan x="0" y="0">0</tspan></text>
      <text class="cls-1" transform="translate(62.15 143.22) rotate(-166.73)"><tspan x="0" y="0">4</tspan></text>
      <text class="cls-1" transform="translate(57.95 142.25) rotate(-163.12)"><tspan x="0" y="0"> </tspan></text>
      <text class="cls-1" transform="translate(51.14 140.05) rotate(-157.12)"><tspan x="0" y="0">•</tspan></text>
      <text class="cls-1" transform="translate(47.13 138.38) rotate(-153.49)"><tspan x="0" y="0"> </tspan></text>
      <text class="cls-1" transform="translate(40.77 135.06) rotate(-147.51)"><tspan x="0" y="0">1</tspan></text>
      <text class="cls-1" transform="translate(37.13 132.77) rotate(-143.94)"><tspan x="0" y="0">5</tspan></text>
      <text class="cls-1" transform="translate(33.63 130.24) rotate(-140.36)"><tspan x="0" y="0"> </tspan></text>
      <text class="cls-1" transform="translate(28.19 125.57) rotate(-134.42)"><tspan x="0" y="0">“</tspan></text>
      <text class="cls-1" transform="translate(25.16 122.5) rotate(-130.86)"><tspan x="0" y="0"> </tspan></text>
      <text class="cls-1" transform="translate(20.55 116.98) rotate(-124.9)"><tspan x="0" y="0">0</tspan></text>
      <text class="cls-1" transform="translate(18.08 113.46) rotate(-121.33)"><tspan x="0" y="0">.</tspan></text>
      <text class="cls-1" transform="translate(15.82 109.78) rotate(-117.73)"><tspan x="0" y="0">8</tspan></text>
      <text class="cls-1" transform="translate(13.79 105.95) rotate(-114.11)"><tspan x="0" y="0"> </tspan></text>
      <text class="cls-1" transform="translate(10.97 99.36) rotate(-108.1)"><tspan x="0" y="0">9</tspan></text>
      <text class="cls-1" transform="translate(9.62 95.25) rotate(-104.47)"><tspan x="0" y="0">1</tspan></text>
      <text class="cls-1" transform="translate(8.52 91.09) rotate(-100.87)"><tspan x="0" y="0"> </tspan></text>
      <text class="cls-1" transform="translate(7.29 84.02) rotate(-94.89)"><tspan x="0" y="0">“</tspan></text>
      <text class="cls-1" transform="translate(6.91 79.71) rotate(-91.34)"><tspan x="0" y="0"> </tspan></text>
      <text class="cls-1" transform="translate(6.86 72.55) rotate(-85.47)"><tspan x="0" y="0">2</tspan></text>
      <text class="cls-1" transform="translate(7.19 68.24) rotate(-81.88)"><tspan x="0" y="0"> </tspan></text>
      <text class="cls-1" transform="translate(8.33 61.16) rotate(-75.88)"><tspan x="0" y="0">—</tspan></text>
      <text class="cls-1" transform="translate(9.37 56.96) rotate(-72.26)"><tspan x="0" y="0">—</tspan></text>
      <text class="cls-1" transform="translate(10.66 52.87) rotate(-68.66)"><tspan x="0" y="0">—</tspan></text>
      <text class="cls-1" transform="translate(12.22 48.84) rotate(-65.04)"><tspan x="0" y="0">—</tspan></text>
      <text class="cls-1" transform="translate(14.03 44.91) rotate(-61.42)"><tspan x="0" y="0">—</tspan></text>
      <text class="cls-1" transform="translate(16.08 41.11) rotate(-57.83)"><tspan x="0" y="0">—</tspan></text>
      <text class="cls-1" transform="translate(18.36 37.46) rotate(-54.26)"><tspan x="0" y="0">—</tspan></text>
      <text class="cls-1" transform="translate(20.87 33.95) rotate(-50.68)"><tspan x="0" y="0">—</tspan></text>
      <text class="cls-1" transform="translate(23.59 30.6) rotate(-47.11)"><tspan x="0" y="0"> </tspan></text>
      <text class="cls-1" transform="translate(28.58 25.41) rotate(-41.16)"><tspan x="0" y="0">0</tspan></text>
      <text class="cls-1" transform="translate(31.8 22.58) rotate(-37.61)"><tspan x="0" y="0">0</tspan></text>
      <text class="cls-1" transform="translate(35.22 19.93) rotate(-34.02)"><tspan x="0" y="0">2</tspan></text>
      <text class="cls-1" transform="translate(38.8 17.49) rotate(-30.42)"><tspan x="0" y="0"> </tspan></text>
      <text class="cls-1" transform="translate(45.04 13.97) rotate(-24.44)"><tspan x="0" y="0">“</tspan></text>
      <text class="cls-1" transform="translate(48.97 12.17) rotate(-20.82)"><tspan x="0" y="0"> </tspan></text>
      <text class="cls-1" transform="translate(55.71 9.74) rotate(-14.81)"><tspan x="0" y="0">9</tspan></text>
      <text class="cls-1" transform="translate(59.86 8.62) rotate(-11.21)"><tspan x="0" y="0">9</tspan></text>
      <text class="cls-1" transform="translate(37.8 35.84) rotate(-41.07)"><tspan x="0" y="0">G</tspan></text>
      <text class="cls-1" transform="translate(41.04 32.99) rotate(-36.6)"><tspan x="0" y="0">R</tspan></text>
      <text class="cls-1" transform="translate(44.46 30.43) rotate(-32.15)"><tspan x="0" y="0">I</tspan></text>
      <text class="cls-1" transform="translate(48.1 28.12) rotate(-27.64)"><tspan x="0" y="0">D</tspan></text>
      <text class="cls-1" transform="translate(51.9 26.11) rotate(-23.15)"><tspan x="0" y="0"> </tspan></text>
      <text class="cls-1" transform="translate(55.82 24.41) rotate(-18.65)"><tspan x="0" y="0">P</tspan></text>
      <text class="cls-1" transform="translate(59.91 23.01) rotate(-14.12)"><tspan x="0" y="0">O</tspan></text>
      <text class="cls-1" transform="translate(64.05 21.94) rotate(-9.63)"><tspan x="0" y="0">I</tspan></text>
      <text class="cls-1" transform="translate(68.27 21.21) rotate(-5.17)"><tspan x="0" y="0">N</tspan></text>
      <text class="cls-1" transform="translate(72.56 20.81) rotate(-.93)"><tspan x="0" y="0">T</tspan></text>
      <text class="cls-1" transform="translate(76.84 20.73) rotate(3.67)"><tspan x="0" y="0"> </tspan></text>
      <text class="cls-1" transform="translate(81.14 20.98) rotate(8.15)"><tspan x="0" y="0">—</tspan></text>
      <text class="cls-1" transform="translate(85.39 21.57) rotate(12.64)"><tspan x="0" y="0">—</tspan></text>
      <text class="cls-1" transform="translate(89.58 22.49) rotate(17.14)"><tspan x="0" y="0">—</tspan></text>
      <text class="cls-1" transform="translate(93.69 23.74) rotate(21.65)"><tspan x="0" y="0">—</tspan></text>
      <text class="cls-1" transform="translate(97.69 25.3) rotate(26.16)"><tspan x="0" y="0"> </tspan></text>
      <text class="cls-1" transform="translate(101.56 27.18) rotate(30.66)"><tspan x="0" y="0">A</tspan></text>
      <text class="cls-1" transform="translate(105.26 29.35) rotate(35.12)"><tspan x="0" y="0">C</tspan></text>
      <text class="cls-1" transform="translate(108.78 31.8) rotate(39.57)"><tspan x="0" y="0">T</tspan></text>
      <text class="cls-1" transform="translate(112.11 34.53) rotate(44.04)"><tspan x="0" y="0">I</tspan></text>
      <text class="cls-1" transform="translate(115.22 37.51) rotate(48.5)"><tspan x="0" y="0">V</tspan></text>
      <text class="cls-1" transform="translate(118.07 40.71) rotate(52.95)"><tspan x="0" y="0">E</tspan></text>
      <text class="cls-1" transform="translate(120.68 44.13) rotate(57.42)"><tspan x="0" y="0"> </tspan></text>
      <text class="cls-1" transform="translate(123 47.71) rotate(61.88)"><tspan x="0" y="0">•</tspan></text>
      <text class="cls-1" transform="translate(125.05 51.51) rotate(66.39)"><tspan x="0" y="0"> </tspan></text>
      <text class="cls-1" transform="translate(126.78 55.44) rotate(70.91)"><tspan x="0" y="0">S</tspan></text>
      <text class="cls-1" transform="translate(128.21 59.49) rotate(75.42)"><tspan x="0" y="0">I</tspan></text>
      <text class="cls-1" transform="translate(129.31 63.63) rotate(79.92)"><tspan x="0" y="0">G</tspan></text>
      <text class="cls-1" transform="translate(130.08 67.85) rotate(84.38)"><tspan x="0" y="0">N</tspan></text>
      <text class="cls-1" transform="translate(130.52 72.12) rotate(88.82)"><tspan x="0" y="0">A</tspan></text>
      <text class="cls-1" transform="translate(130.63 76.41) rotate(93.22)"><tspan x="0" y="0">L</tspan></text>
      <text class="cls-1" transform="translate(130.4 80.72) rotate(97.7)"><tspan x="0" y="0">:</tspan></text>
      <text class="cls-1" transform="translate(129.85 84.98) rotate(102.19)"><tspan x="0" y="0"> </tspan></text>
      <text class="cls-1" transform="translate(128.96 89.18) rotate(106.7)"><tspan x="0" y="0">S</tspan></text>
      <text class="cls-1" transform="translate(127.74 93.3) rotate(111.21)"><tspan x="0" y="0">T</tspan></text>
      <text class="cls-1" transform="translate(126.21 97.3) rotate(115.71)"><tspan x="0" y="0">R</tspan></text>
      <text class="cls-1" transform="translate(124.37 101.18) rotate(120.2)"><tspan x="0" y="0">O</tspan></text>
      <text class="cls-1" transform="translate(122.22 104.91) rotate(124.69)"><tspan x="0" y="0">N</tspan></text>
      <text class="cls-1" transform="translate(119.79 108.45) rotate(129.15)"><tspan x="0" y="0">G</tspan></text>
      <text class="cls-1" transform="translate(117.1 111.79) rotate(133.59)"><tspan x="0" y="0"> </tspan></text>
      <text class="cls-1" transform="translate(114.16 114.91) rotate(138.03)"><tspan x="0" y="0">—</tspan></text>
      <text class="cls-1" transform="translate(110.98 117.79) rotate(142.48)"><tspan x="0" y="0">—</tspan></text>
      <text class="cls-1" transform="translate(107.59 120.42) rotate(146.95)"><tspan x="0" y="0">—</tspan></text>
      <text class="cls-1" transform="translate(103.99 122.79) rotate(151.44)"><tspan x="0" y="0">—</tspan></text>
      <text class="cls-1" transform="translate(100.23 124.86) rotate(155.93)"><tspan x="0" y="0"> </tspan></text>
      <text class="cls-1" transform="translate(96.32 126.63) rotate(160.44)"><tspan x="0" y="0">L</tspan></text>
      <text class="cls-1" transform="translate(92.28 128.08) rotate(164.95)"><tspan x="0" y="0">A</tspan></text>
      <text class="cls-1" transform="translate(88.13 129.22) rotate(169.47)"><tspan x="0" y="0">T</tspan></text>
      <text class="cls-1" transform="translate(83.93 130.02) rotate(173.93)"><tspan x="0" y="0">E</tspan></text>
      <text class="cls-1" transform="translate(79.66 130.49) rotate(178.37)"><tspan x="0" y="0">N</tspan></text>
      <text class="cls-1" transform="translate(75.35 130.64) rotate(-177.21)"><tspan x="0" y="0">C</tspan></text>
      <text class="cls-1" transform="translate(71.06 130.45) rotate(-172.76)"><tspan x="0" y="0">Y</tspan></text>
      <text class="cls-1" transform="translate(66.81 129.93) rotate(-168.28)"><tspan x="0" y="0">:</tspan></text>
      <text class="cls-1" transform="translate(62.6 129.07) rotate(-163.77)"><tspan x="0" y="0"> </tspan></text>
      <text class="cls-1" transform="translate(58.46 127.89) rotate(-159.25)"><tspan x="0" y="0">8</tspan></text>
      <text class="cls-1" transform="translate(54.45 126.39) rotate(-154.75)"><tspan x="0" y="0">M</tspan></text>
      <text class="cls-1" transform="translate(50.55 124.57) rotate(-150.25)"><tspan x="0" y="0">S</tspan></text>
      <text class="cls-1" transform="translate(46.82 122.46) rotate(-145.79)"><tspan x="0" y="0"> </tspan></text>
      <text class="cls-1" transform="translate(43.25 120.07) rotate(-141.32)"><tspan x="0" y="0">—</tspan></text>
      <text class="cls-1" transform="translate(39.9 117.4) rotate(-136.88)"><tspan x="0" y="0">—</tspan></text>
      <text class="cls-1" transform="translate(36.74 114.47) rotate(-132.42)"><tspan x="0" y="0">—</tspan></text>
      <text class="cls-1" transform="translate(33.82 111.31) rotate(-127.95)"><tspan x="0" y="0">—</tspan></text>
      <text class="cls-1" transform="translate(31.16 107.93) rotate(-123.48)"><tspan x="0" y="0"> </tspan></text>
      <text class="cls-1" transform="translate(28.79 104.38) rotate(-119.03)"><tspan x="0" y="0">•</tspan></text>
      <text class="cls-1" transform="translate(88.38 36.69) rotate(21.43)"><tspan x="0" y="0">•</tspan></text>
      <text class="cls-1" transform="translate(92.36 38.22) rotate(27.43)"><tspan x="0" y="0"> </tspan></text>
      <text class="cls-1" transform="translate(96.69 40.47) rotate(34.26)"><tspan x="0" y="0">7</tspan></text>
      <text class="cls-1" transform="translate(100.22 42.84) rotate(40.17)"><tspan x="0" y="0"> </tspan></text>
      <text class="cls-1" transform="translate(103.95 46) rotate(46.96)"><tspan x="0" y="0">“</tspan></text>
      <text class="cls-1" transform="translate(106.89 49.1) rotate(52.91)"><tspan x="0" y="0"> </tspan></text>
      <text class="cls-1" transform="translate(109.82 52.99) rotate(59.71)"><tspan x="0" y="0">0</tspan></text>
      <text class="cls-1" transform="translate(111.99 56.65) rotate(65.67)"><tspan x="0" y="0">0</tspan></text>
      <text class="cls-1" transform="translate(113.78 60.54) rotate(71.7)"><tspan x="0" y="0">4</tspan></text>
      <text class="cls-1" transform="translate(115.14 64.55) rotate(77.67)"><tspan x="0" y="0"> </tspan></text>
      <text class="cls-1" transform="translate(116.18 69.33) rotate(84.52)"><tspan x="0" y="0">•</tspan></text>
      <text class="cls-1" transform="translate(116.63 73.57) rotate(90.93)"><tspan x="0" y="0"> </tspan></text>
      <text class="cls-1" transform="translate(116.57 78.44) rotate(97.15)"><tspan x="0" y="0">0</tspan></text>
      <text class="cls-1" transform="translate(116.07 82.67) rotate(103.13)"><tspan x="0" y="0">0</tspan></text>
      <text class="cls-1" transform="translate(115.13 86.83) rotate(109.14)"><tspan x="0" y="0">4</tspan></text>
      <text class="cls-1" transform="translate(113.75 90.88) rotate(115.16)"><tspan x="0" y="0"> </tspan></text>
      <text class="cls-1" transform="translate(111.68 95.28) rotate(121.97)"><tspan x="0" y="0">“</tspan></text>
      <text class="cls-1" transform="translate(109.44 98.93) rotate(127.95)"><tspan x="0" y="0"> </tspan></text>
      <text class="cls-1" transform="translate(106.45 102.76) rotate(134.7)"><tspan x="0" y="0">9</tspan></text>
      <text class="cls-1" transform="translate(103.46 105.81) rotate(140.64)"><tspan x="0" y="0">1</tspan></text>
      <text class="cls-1" transform="translate(100.19 108.53) rotate(146.56)"><tspan x="0" y="0"> </tspan></text>
      <text class="cls-1" transform="translate(96.11 111.22) rotate(153.4)"><tspan x="0" y="0">•</tspan></text>
      <text class="cls-1" transform="translate(92.31 113.15) rotate(159.41)"><tspan x="0" y="0"> </tspan></text>
      <text class="cls-1" transform="translate(87.74 114.87) rotate(166.29)"><tspan x="0" y="0">1</tspan></text>
      <text class="cls-1" transform="translate(83.61 115.9) rotate(172.26)"><tspan x="0" y="0">2</tspan></text>
      <text class="cls-1" transform="translate(79.39 116.5) rotate(178.19)"><tspan x="0" y="0"> </tspan></text>
      <text class="cls-1" transform="translate(74.52 116.65) rotate(-175.11)"><tspan x="0" y="0">“</tspan></text>
      <text class="cls-1" transform="translate(70.25 116.32) rotate(-169.11)"><tspan x="0" y="0"> </tspan></text>
      <text class="cls-1" transform="translate(65.48 115.4) rotate(-162.28)"><tspan x="0" y="0">0</tspan></text>
      <text class="cls-1" transform="translate(61.39 114.12) rotate(-156.24)"><tspan x="0" y="0"> </tspan></text>
      <text class="cls-1" transform="translate(56.94 112.15) rotate(-149.41)"><tspan x="0" y="0">•</tspan></text>
      <text class="cls-1" transform="translate(53.26 110.01) rotate(-143.47)"><tspan x="0" y="0"> </tspan></text>
      <text class="cls-1" transform="translate(49.33 107.09) rotate(-136.67)"><tspan x="0" y="0">0</tspan></text>
      <text class="cls-1" transform="translate(46.21 104.18) rotate(-130.73)"><tspan x="0" y="0">.</tspan></text>
      <text class="cls-1" transform="translate(43.42 100.98) rotate(-124.82)"><tspan x="0" y="0">1</tspan></text>
      <text class="cls-1" transform="translate(40.96 97.5) rotate(-118.86)"><tspan x="0" y="0"> </tspan></text>
      <text class="cls-1" transform="translate(38.61 93.23) rotate(-112)"><tspan x="0" y="0">“</tspan></text>
      <text class="cls-1" transform="translate(36.98 89.28) rotate(-105.99)"><tspan x="0" y="0"> </tspan></text>
      <text class="cls-1" transform="translate(35.65 84.59) rotate(-99.14)"><tspan x="0" y="0">8</tspan></text>
      <text class="cls-1" transform="translate(34.94 80.41) rotate(-93.22)"><tspan x="0" y="0">8</tspan></text>
      <text class="cls-1" transform="translate(34.68 76.13) rotate(-87.33)"><tspan x="0" y="0"> </tspan></text>
      <line class="cls-3" x1="75.67" y1="63.24" x2="75.67" y2="88.11"/>
      <line class="cls-3" x1="63.23" y1="75.68" x2="88.1" y2="75.68"/>
      <path d="M75.67,44.23c3.7,0,6.71,3.01,6.71,6.71s-3.01,6.71-6.71,6.71-6.71-3.01-6.71-6.71,3.01-6.71,6.71-6.71M75.67,43.48c-4.12,0-7.46,3.34-7.46,7.46s3.34,7.46,7.46,7.46,7.46-3.34,7.46-7.46-3.34-7.46-7.46-7.46h0Z"/>
      <path d="M75.67,48.95c1.1,0,1.99.89,1.99,1.99s-.89,1.99-1.99,1.99-1.99-.89-1.99-1.99.89-1.99,1.99-1.99M75.67,48.2c-1.51,0-2.74,1.23-2.74,2.74s1.23,2.74,2.74,2.74,2.74-1.23,2.74-2.74-1.23-2.74-2.74-2.74h0Z"/>
      <text class="cls-2" transform="translate(19.19 66.75)"><tspan x="0" y="0">BOOT.REC //</tspan></text>
    </g>
  </g>
</svg>