<?xml version="1.0" encoding="UTF-8"?>
<svg id="Layer_2" data-name="Layer 2" xmlns="http://www.w3.org/2000/svg" viewBox="0 0 266.34 70.17">
  <defs>
    <style>
      .cls-1 {
        font-family: RobotoMono-Regular, 'Roboto Mono';
        font-size: 24px;
        font-variation-settings: 'wght' 400;
        letter-spacing: -.05em;
      }

      .cls-2 {
        font-family: RobotoMono-SemiBold, 'Roboto Mono';
        font-size: 40px;
        font-variation-settings: 'wght' 600;
        font-weight: 600;
        letter-spacing: -.05em;
      }

      .cls-3 {
        font-family: RobotoMono-Medium, 'Roboto Mono';
        font-size: 8px;
        font-variation-settings: 'wght' 500;
        font-weight: 500;
        letter-spacing: -.05em;
      }

      .cls-4 {
        fill: none;
        stroke: #000;
        stroke-miterlimit: 10;
        stroke-width: .75px;
      }
    </style>
  </defs>
  <g id="Layer_1-2" data-name="Layer 1">
    <g>
      <circle class="cls-4" cx="10.42" cy="13.16" r="10.04"/>
      <circle class="cls-4" cx="10.42" cy="36.46" r="10.04"/>
      <circle class="cls-4" cx="10.42" cy="59.75" r="10.04"/>
      <g>
        <path d="M10.42,20.93c-4.29,0-7.77-3.48-7.77-7.77s3.48-7.77,7.77-7.77,7.77,3.48,7.77,7.77-3.48,7.77-7.77,7.77ZM10.42,6.04c-3.92,0-7.12,3.2-7.12,7.12s3.2,7.12,7.12,7.12,7.12-3.2,7.12-7.12-3.2-7.12-7.12-7.12Z"/>
        <path d="M10.42,20.93c-2.5,0-4.46-3.42-4.46-7.77s1.96-7.77,4.46-7.77,4.46,3.42,4.46,7.77-1.96,7.77-4.46,7.77ZM10.42,6.04c-2.1,0-3.82,3.2-3.82,7.12s1.71,7.12,3.82,7.12,3.82-3.2,3.82-7.12-1.72-7.12-3.82-7.12Z"/>
        <path d="M4.23,8.71h12.38v.65H4.23v-.65ZM4.23,16.98h12.38v.65H4.23v-.65ZM2.97,12.84h14.9v.65H2.97v-.65Z"/>
        <path d="M10.1,5.71h.65v14.9h-.65V5.71Z"/>
      </g>
      <g>
        <rect x="7.76" y="31.68" width=".84" height="5.07" transform="translate(-21.8 15.81) rotate(-45)"/>
        <rect x="12.24" y="36.16" width=".84" height="5.07" transform="translate(-23.65 20.28) rotate(-45)"/>
        <rect x="7.76" y="36.16" width=".84" height="5.07" transform="translate(-13.4 71.84) rotate(-135)"/>
        <rect x="12.24" y="31.68" width=".84" height="5.07" transform="translate(-2.59 67.37) rotate(-135)"/>
      </g>
      <g>
        <path d="M9.16,63.65c-.22-.07-.45-.05-.66.05-.21.11-.36.28-.43.5-.15.45.1.94.56,1.09h0c.08.03.17.04.27.04.38,0,.71-.24.82-.6.07-.22.05-.45-.05-.66-.11-.21-.29-.36-.51-.43Z"/>
        <path d="M8.87,55.91c.09,0,.18-.01.27-.04.45-.15.7-.64.55-1.09-.15-.45-.64-.7-1.09-.55-.22.07-.4.23-.5.43s-.12.44-.05.66c.12.36.45.6.82.6Z"/>
        <path d="M5.89,57.55c.15.11.32.16.5.16.28,0,.54-.13.7-.36.14-.19.19-.42.15-.65-.04-.23-.16-.43-.35-.56-.39-.28-.93-.19-1.21.19-.14.19-.19.42-.16.65s.16.43.35.57h0Z"/>
        <path d="M6.32,59.76c0-.48-.39-.86-.87-.86s-.87.39-.87.87h0c0,.48.39.86.87.86.23,0,.45-.09.61-.25.16-.16.25-.38.25-.61Z"/>
        <path d="M5.9,61.98c-.19.13-.31.33-.35.56-.04.23.02.46.16.65h0c.16.22.42.35.7.35.19,0,.36-.06.51-.17.19-.13.31-.33.35-.56.04-.23-.02-.46-.15-.65-.28-.38-.82-.47-1.21-.19Z"/>
        <path d="M11.67,55.85c.08.03.17.04.26.04.38,0,.71-.24.83-.6.14-.46-.11-.94-.56-1.09-.22-.07-.46-.05-.66.05-.21.11-.36.28-.43.5-.15.45.1.94.56,1.09Z"/>
        <path d="M16.25,59.73c0-.48-.39-.86-.87-.86h0c-.23,0-.45.09-.61.26-.16.16-.25.38-.25.62h0c0,.49.39.88.86.88s.84-.36.87-.82h0s0-.07,0-.07Z"/>
        <path d="M13.73,62.16c-.28.39-.19.93.19,1.21h0c.15.11.33.17.51.17.28,0,.54-.13.7-.36.14-.19.19-.42.16-.64-.04-.23-.16-.43-.35-.57-.39-.28-.93-.2-1.21.19Z"/>
        <path d="M14.42,57.69c.19,0,.36-.06.51-.17.19-.14.31-.34.35-.57.04-.23-.02-.46-.16-.64-.14-.19-.34-.31-.57-.35-.23-.03-.46.02-.64.16-.19.14-.31.34-.35.57-.03.23.02.46.16.64.16.22.42.35.7.35Z"/>
        <path d="M11.69,63.65c-.45.15-.7.64-.56,1.09h0c.12.36.45.6.82.6.09,0,.18-.01.27-.04.22-.07.4-.22.5-.43.1-.21.12-.44.05-.66-.15-.45-.64-.7-1.09-.56Z"/>
      </g>
      <text class="cls-2" transform="translate(30.2 34.22)"><tspan x="0" y="0">DEFAULT</tspan></text>
      <text class="cls-1" transform="translate(30.92 55.96)"><tspan x="0" y="0">SIGNAL</tspan></text>
      <g>
        <line class="cls-4" x1="146.46" y1="64.07" x2="146.46" y2="69.8"/>
        <line class="cls-4" x1="143.56" y1="66.93" x2="149.36" y2="66.93"/>
      </g>
      <g>
        <line class="cls-4" x1="226" y1="64.07" x2="226" y2="69.8"/>
        <line class="cls-4" x1="223.09" y1="66.93" x2="228.9" y2="66.93"/>
      </g>
      <g>
        <line class="cls-4" x1="202.04" y1="64.07" x2="202.04" y2="69.8"/>
        <line class="cls-4" x1="199.14" y1="66.93" x2="204.94" y2="66.93"/>
      </g>
      <g>
        <line class="cls-4" x1="138.8" y1="64.07" x2="138.8" y2="69.8"/>
        <line class="cls-4" x1="135.9" y1="66.93" x2="141.7" y2="66.93"/>
      </g>
      <path d="M131.37,65.22c1.05,0,1.91.86,1.91,1.91s-.86,1.91-1.91,1.91-1.91-.86-1.91-1.91.86-1.91,1.91-1.91M131.37,64.47c-1.47,0-2.66,1.19-2.66,2.66s1.19,2.66,2.66,2.66,2.66-1.19,2.66-2.66-1.19-2.66-2.66-2.66h0Z"/>
      <path d="M209.58,65.22c1.05,0,1.91.86,1.91,1.91s-.86,1.91-1.91,1.91-1.91-.86-1.91-1.91.86-1.91,1.91-1.91M209.58,64.47c-1.47,0-2.66,1.19-2.66,2.66s1.19,2.66,2.66,2.66,2.66-1.19,2.66-2.66-1.19-2.66-2.66-2.66h0Z"/>
      <path d="M34.59,65.22c1.05,0,1.91.86,1.91,1.91s-.86,1.91-1.91,1.91-1.91-.86-1.91-1.91.86-1.91,1.91-1.91M34.59,64.47c-1.47,0-2.66,1.19-2.66,2.66s1.19,2.66,2.66,2.66,2.66-1.19,2.66-2.66-1.19-2.66-2.66-2.66h0Z"/>
      <path d="M262.94,65.22c1.05,0,1.91.86,1.91,1.91s-.86,1.91-1.91,1.91-1.91-.86-1.91-1.91.86-1.91,1.91-1.91M262.94,64.47c-1.47,0-2.66,1.19-2.66,2.66s1.19,2.66,2.66,2.66,2.66-1.19,2.66-2.66-1.19-2.66-2.66-2.66h0Z"/>
      <text class="cls-3" transform="translate(116.32 46.72)"><tspan x="0" y="0">ONLINE — ID: B2-7E — LATENCY: 11ms</tspan><tspan x="0" y="8">SYSTEM OK — ID: 90-1C — LOAD: 29%</tspan></text>
      <polygon class="cls-4" points="237.01 5.72 237.01 11.13 256.36 11.13 237.81 29.69 241.63 33.52 260.19 14.96 260.19 34.31 265.6 34.31 265.6 11.13 265.6 5.72 260.19 5.72 237.01 5.72"/>
    </g>
  </g>
</svg>