<?xml version="1.0" encoding="UTF-8"?>
<svg id="Layer_2" data-name="Layer 2" xmlns="http://www.w3.org/2000/svg" viewBox="0 0 335.33 108.35">
  <defs>
    <style>
      .cls-1 {
        letter-spacing: 5.65em;
      }

      .cls-2 {
        font-family: RobotoMono-Medium, 'Roboto Mono';
        font-size: 24px;
        font-variation-settings: 'wght' 500;
        font-weight: 500;
        letter-spacing: -.05em;
      }

      .cls-3 {
        stroke-width: .75px;
      }

      .cls-3, .cls-4 {
        fill: none;
        stroke: #000;
        stroke-miterlimit: 10;
      }

      .cls-5 {
        font-size: 12px;
      }

      .cls-5, .cls-6 {
        font-family: RobotoMono-Regular, 'Roboto Mono';
        font-variation-settings: 'wght' 400;
      }

      .cls-7 {
        letter-spacing: -.05em;
      }

      .cls-8 {
        letter-spacing: -.05em;
      }

      .cls-4 {
        stroke-linecap: square;
        stroke-width: 2px;
      }

      .cls-6 {
        font-size: 8px;
        letter-spacing: -.05em;
      }

      .cls-9 {
        letter-spacing: .05em;
      }

      .cls-10 {
        letter-spacing: .05em;
      }
    </style>
  </defs>
  <g id="Layer_1-2" data-name="Layer 1">
    <g>
      <line class="cls-3" x1=".38" y1="5.52" x2="328.36" y2="5.52"/>
      <g>
        <line class="cls-3" x1=".38" y1="0" x2=".38" y2="11.04"/>
        <line class="cls-3" x1="65.97" y1="0" x2="65.97" y2="11.04"/>
        <line class="cls-3" x1="131.57" y1="0" x2="131.57" y2="11.04"/>
        <line class="cls-3" x1="197.16" y1="0" x2="197.16" y2="11.04"/>
        <line class="cls-3" x1="262.76" y1="0" x2="262.76" y2="11.04"/>
        <line class="cls-3" x1="328.36" y1="0" x2="328.36" y2="11.04"/>
      </g>
      <g>
        <line class="cls-3" x1=".38" y1="3.65" x2=".38" y2="7.38"/>
        <line class="cls-3" x1="22.24" y1="3.65" x2="22.24" y2="7.38"/>
        <line class="cls-3" x1="44.11" y1="3.65" x2="44.11" y2="7.38"/>
        <line class="cls-3" x1="65.97" y1="3.65" x2="65.97" y2="7.38"/>
        <line class="cls-3" x1="87.84" y1="3.65" x2="87.84" y2="7.38"/>
        <line class="cls-3" x1="109.7" y1="3.65" x2="109.7" y2="7.38"/>
        <line class="cls-3" x1="131.57" y1="3.65" x2="131.57" y2="7.38"/>
        <line class="cls-3" x1="153.43" y1="3.65" x2="153.43" y2="7.38"/>
        <line class="cls-3" x1="175.3" y1="3.65" x2="175.3" y2="7.38"/>
        <line class="cls-3" x1="197.16" y1="3.65" x2="197.16" y2="7.38"/>
        <line class="cls-3" x1="219.03" y1="3.65" x2="219.03" y2="7.38"/>
        <line class="cls-3" x1="240.89" y1="3.65" x2="240.89" y2="7.38"/>
        <line class="cls-3" x1="262.76" y1="3.65" x2="262.76" y2="7.38"/>
        <line class="cls-3" x1="284.63" y1="3.65" x2="284.63" y2="7.38"/>
        <line class="cls-3" x1="306.49" y1="3.65" x2="306.49" y2="7.38"/>
        <line class="cls-3" x1="328.36" y1="3.65" x2="328.36" y2="7.38"/>
      </g>
      <g>
        <g id="_Grid_Repeat_" data-name="&amp;lt;Grid Repeat&amp;gt;">
          <circle cx="4.69" cy="23.45" r="4.69"/>
        </g>
        <g id="_Grid_Repeat_-2" data-name="&amp;lt;Grid Repeat&amp;gt;">
          <circle cx="20.5" cy="23.45" r="4.69"/>
        </g>
        <g id="_Grid_Repeat_-3" data-name="&amp;lt;Grid Repeat&amp;gt;">
          <circle cx="52.12" cy="23.45" r="4.69"/>
        </g>
        <g id="_Grid_Repeat_-4" data-name="&amp;lt;Grid Repeat&amp;gt;">
          <circle cx="67.94" cy="23.45" r="4.69"/>
        </g>
        <g id="_Grid_Repeat_-5" data-name="&amp;lt;Grid Repeat&amp;gt;">
          <circle cx="99.56" cy="23.45" r="4.69"/>
        </g>
        <g id="_Grid_Repeat_-6" data-name="&amp;lt;Grid Repeat&amp;gt;">
          <circle cx="115.37" cy="23.45" r="4.69"/>
        </g>
        <g id="_Grid_Repeat_-7" data-name="&amp;lt;Grid Repeat&amp;gt;">
          <circle cx="131.18" cy="23.45" r="4.69"/>
        </g>
        <g id="_Grid_Repeat_-8" data-name="&amp;lt;Grid Repeat&amp;gt;">
          <circle cx="146.99" cy="23.45" r="4.69"/>
        </g>
        <g id="_Grid_Repeat_-9" data-name="&amp;lt;Grid Repeat&amp;gt;">
          <circle cx="4.69" cy="39.26" r="4.69"/>
        </g>
        <g id="_Grid_Repeat_-10" data-name="&amp;lt;Grid Repeat&amp;gt;">
          <circle cx="20.5" cy="39.26" r="4.69"/>
        </g>
        <g id="_Grid_Repeat_-11" data-name="&amp;lt;Grid Repeat&amp;gt;">
          <circle cx="36.31" cy="39.26" r="4.69"/>
        </g>
        <g id="_Grid_Repeat_-12" data-name="&amp;lt;Grid Repeat&amp;gt;">
          <circle cx="52.12" cy="39.26" r="4.69"/>
        </g>
        <g id="_Grid_Repeat_-13" data-name="&amp;lt;Grid Repeat&amp;gt;">
          <circle cx="83.75" cy="39.26" r="4.69"/>
        </g>
        <g id="_Grid_Repeat_-14" data-name="&amp;lt;Grid Repeat&amp;gt;">
          <circle cx="115.37" cy="39.26" r="4.69"/>
        </g>
        <g id="_Grid_Repeat_-15" data-name="&amp;lt;Grid Repeat&amp;gt;">
          <circle cx="131.18" cy="39.26" r="4.69"/>
        </g>
        <g id="_Grid_Repeat_-16" data-name="&amp;lt;Grid Repeat&amp;gt;">
          <circle cx="4.69" cy="55.07" r="4.69"/>
        </g>
        <g id="_Grid_Repeat_-17" data-name="&amp;lt;Grid Repeat&amp;gt;">
          <circle cx="36.31" cy="55.07" r="4.69"/>
        </g>
        <g id="_Grid_Repeat_-18" data-name="&amp;lt;Grid Repeat&amp;gt;">
          <circle cx="67.94" cy="55.07" r="4.69"/>
        </g>
        <g id="_Grid_Repeat_-19" data-name="&amp;lt;Grid Repeat&amp;gt;">
          <circle cx="83.75" cy="55.07" r="4.69"/>
        </g>
        <g id="_Grid_Repeat_-20" data-name="&amp;lt;Grid Repeat&amp;gt;">
          <circle cx="99.56" cy="55.07" r="4.69"/>
        </g>
        <g id="_Grid_Repeat_-21" data-name="&amp;lt;Grid Repeat&amp;gt;">
          <circle cx="131.18" cy="55.07" r="4.69"/>
        </g>
        <g id="_Grid_Repeat_-22" data-name="&amp;lt;Grid Repeat&amp;gt;">
          <circle cx="146.99" cy="55.07" r="4.69"/>
        </g>
        <g id="_Grid_Repeat_-23" data-name="&amp;lt;Grid Repeat&amp;gt;">
          <circle cx="4.69" cy="70.88" r="4.69"/>
        </g>
        <g id="_Grid_Repeat_-24" data-name="&amp;lt;Grid Repeat&amp;gt;">
          <circle cx="36.31" cy="70.88" r="4.69"/>
        </g>
        <g id="_Grid_Repeat_-25" data-name="&amp;lt;Grid Repeat&amp;gt;">
          <circle cx="52.12" cy="70.88" r="4.69"/>
        </g>
        <g id="_Grid_Repeat_-26" data-name="&amp;lt;Grid Repeat&amp;gt;">
          <circle cx="67.94" cy="70.88" r="4.69"/>
        </g>
        <g id="_Grid_Repeat_-27" data-name="&amp;lt;Grid Repeat&amp;gt;">
          <circle cx="99.56" cy="70.88" r="4.69"/>
        </g>
        <g id="_Grid_Repeat_-28" data-name="&amp;lt;Grid Repeat&amp;gt;">
          <circle cx="131.18" cy="70.88" r="4.69"/>
        </g>
        <g id="_Grid_Repeat_-29" data-name="&amp;lt;Grid Repeat&amp;gt;">
          <circle cx="146.99" cy="70.88" r="4.69"/>
        </g>
      </g>
      <path d="M260.8,19.51c1.24,0,2.25,1.01,2.25,2.25v27.4c0,1.24-1.01,2.25-2.25,2.25h-98c-1.24,0-2.25-1.01-2.25-2.25v-27.4c0-1.24,1.01-2.25,2.25-2.25h98M260.8,18.76h-98c-1.66,0-3,1.34-3,3v27.4c0,1.66,1.34,3,3,3h98c1.66,0,3-1.34,3-3v-27.4c0-1.66-1.34-3-3-3h0Z"/>
      <text class="cls-6" transform="translate(164.55 29.56)"><tspan x="0" y="0">VALIDATED </tspan><tspan x="0" y="8.9">ID: A0-04 </tspan><tspan x="0" y="17.8">INDEX: #0042</tspan></text>
      <text class="cls-2" transform="translate(158.64 75.57)"><tspan x="0" y="0">DECIPHER</tspan></text>
      <path d="M318.25,18.76h-44.37c-1.08,0-1.96.88-1.96,1.96v52.88c0,1.08.88,1.96,1.96,1.96h52.88c1.08,0,1.96-.88,1.96-1.96V20.73c0-1.08-.88-1.96-1.96-1.96h-8.51ZM285.75,40l21.75,21.75c1.24,1.24.36,3.35-1.39,3.35h-21.75c-1.08,0-1.96-.88-1.96-1.96v-21.75c0-1.75,2.12-2.63,3.35-1.39ZM314.9,54.34l-21.75-21.75c-1.24-1.24-.36-3.35,1.39-3.35h21.75c1.08,0,1.96.88,1.96,1.96v21.75c0,1.75-2.12,2.63-3.35,1.39Z"/>
      <g>
        <circle class="cls-3" cx="247.1" cy="35.46" r="11.91"/>
        <line class="cls-4" x1="241.12" y1="29.48" x2="247.1" y2="35.46"/>
      </g>
      <text class="cls-5" transform="translate(0 92.3)"><tspan class="cls-8" x="0" y="0">INITIALIZING</tspan><tspan class="cls-1" x="79.21" y="0"> </tspan><tspan class="cls-8" x="154.16" y="0">//CODE:</tspan><tspan class="cls-1" x="200.37" y="0"> </tspan><tspan class="cls-7" x="275.31" y="0">0x4E71// </tspan><tspan class="cls-8" x="0" y="12.8">SYNCING</tspan><tspan class="cls-10" x="46.21" y="12.8"> </tspan><tspan class="cls-7" x="54.06" y="12.8">—</tspan><tspan class="cls-10" x="60.66" y="12.8"> </tspan><tspan class="cls-7" x="68.52" y="12.8">ID:</tspan><tspan class="cls-10" x="88.32" y="12.8"> </tspan><tspan class="cls-7" x="96.17" y="12.8">11-2A</tspan><tspan class="cls-9" x="129.18" y="12.8"> </tspan><tspan class="cls-8" x="137.03" y="12.8">—</tspan><tspan class="cls-9" x="143.63" y="12.8"> </tspan><tspan class="cls-8" x="151.48" y="12.8">PACKET</tspan><tspan class="cls-9" x="191.09" y="12.8"> </tspan><tspan class="cls-8" x="198.94" y="12.8">LOSS:</tspan><tspan class="cls-9" x="231.95" y="12.8"> </tspan><tspan class="cls-8" x="239.8" y="12.8">0.3%</tspan><tspan class="cls-9" x="266.21" y="12.8"> </tspan><tspan class="cls-8" x="274.06" y="12.8">MODULE</tspan><tspan class="cls-9" x="313.67" y="12.8"> </tspan><tspan class="cls-8" x="321.52" y="12.8">A</tspan></text>
    </g>
  </g>
</svg>