<?xml version="1.0" encoding="UTF-8"?>
<svg id="Layer_2" data-name="Layer 2" xmlns="http://www.w3.org/2000/svg" viewBox="0 0 286.75 102.66">
  <defs>
    <style>
      .cls-1 {
        font-family: RobotoMono-Bold, 'Roboto Mono';
        font-variation-settings: 'wght' 700;
        font-weight: 700;
        letter-spacing: -.05em;
      }

      .cls-2 {
        font-size: 12px;
      }

      .cls-2, .cls-3 {
        font-family: RobotoMono-Regular, 'Roboto Mono';
        font-variation-settings: 'wght' 400;
        letter-spacing: -.05em;
      }

      .cls-4 {
        font-size: 24px;
      }

      .cls-5, .cls-6 {
        fill: none;
        stroke: #000;
        stroke-miterlimit: 10;
        stroke-width: .75px;
      }

      .cls-6 {
        stroke-linecap: square;
      }
    </style>
  </defs>
  <g id="Layer_1-2" data-name="Layer 1">
    <g>
      <text class="cls-2" transform="translate(115.92 66.4)"><tspan x="0" y="0">MEMORY CORE — OPTIMIZED</tspan><tspan x="0" y="11">USAGE: 42% // TEMP: 31°C</tspan><tspan x="0" y="22">BOOTING — ID: 16-C8</tspan><tspan x="0" y="33">CPU: 63%</tspan></text>
      <g>
        <circle cx="93" cy="8.72" r="8.72"/>
        <path d="M97.81,60.48c-1.83,0-3.53.57-4.93,1.54-2.01,1.39-4.53,1.82-6.8.91h-.03c-2.93-1.18-4.82-4.13-4.45-7.26,2.4-20.62-21.56-35.19-38.88-22.57-1.17.85-2.78.77-3.81-.25l-.05-.05c-.85-.85-1.07-2.12-.61-3.23,2.26-5.42-1.81-12.12-8.1-12.03-4.82,0-8.72,3.91-8.72,8.72-.1,6.32,6.66,10.38,12.09,8.07,1.1-.47,2.38-.26,3.23.59l.03.03c1.04,1.03,1.12,2.65.26,3.83-5.52,7.65-5.93,18.52-1.21,26.64,1.02,1.76.41,3.98-1.37,4.97-6.93,3.89-5.35,15.9,4.42,16.26,4.22.07,7.7-3.08,8.54-6.93.42-1.93,2.4-3.05,4.33-2.62,9.25,2.07,19.41-1.8,25.04-9.19,1.89-2.48,5.22-3.38,8.12-2.23l.06.02c2.16.86,3.83,2.72,4.25,5.01.73,4,4.28,7.25,8.6,7.2,11.57-.46,11.57-16.99,0-17.45Z"/>
      </g>
      <text class="cls-4" transform="translate(87.52 45.89)"><tspan class="cls-3" x="0" y="0">(</tspan><tspan class="cls-1" x="13.2" y="0">CORE</tspan><tspan class="cls-3" x="66.01" y="0">_FUNCTION)</tspan></text>
      <g>
        <line class="cls-5" x1="122.32" y1="8.72" x2="282.24" y2="8.72"/>
        <line class="cls-6" x1="278.05" y1="12.91" x2="282.24" y2="8.72"/>
        <line class="cls-6" x1="278.05" y1="4.54" x2="282.24" y2="8.72"/>
      </g>
      <path d="M113.9.75c4.4,0,7.97,3.58,7.97,7.97s-3.58,7.97-7.97,7.97-7.97-3.58-7.97-7.97,3.58-7.97,7.97-7.97M113.9,0c-4.82,0-8.72,3.91-8.72,8.72s3.91,8.72,8.72,8.72,8.72-3.91,8.72-8.72-3.91-8.72-8.72-8.72h0Z"/>
      <path d="M97.76,82.76c4.4,0,7.97,3.58,7.97,7.97s-3.58,7.97-7.97,7.97-7.97-3.58-7.97-7.97,3.58-7.97,7.97-7.97M97.76,82.01c-4.82,0-8.72,3.91-8.72,8.72s3.91,8.72,8.72,8.72,8.72-3.91,8.72-8.72-3.91-8.72-8.72-8.72h0Z"/>
      <path d="M8.72,18.29c4.4,0,7.97,3.58,7.97,7.97s-3.58,7.97-7.97,7.97S.75,30.66.75,26.26s3.58-7.97,7.97-7.97M8.72,17.54C3.91,17.54,0,21.44,0,26.26s3.91,8.72,8.72,8.72,8.72-3.91,8.72-8.72-3.91-8.72-8.72-8.72h0Z"/>
      <rect y="93.54" width="5.92" height="5.92"/>
      <rect x="8.72" y="93.54" width="5.92" height="5.92"/>
      <rect x="17.45" y="93.54" width="5.92" height="5.92"/>
      <rect x="276.01" y="93.54" width="5.92" height="5.92"/>
      <rect y="0" width="5.92" height="5.92"/>
      <g>
        <line class="cls-5" x1="97.76" y1="86.35" x2="97.76" y2="95.13"/>
        <line class="cls-5" x1="93.37" y1="90.74" x2="102.15" y2="90.74"/>
      </g>
      <g>
        <line class="cls-5" x1="8.72" y1="21.87" x2="8.72" y2="30.65"/>
        <line class="cls-5" x1="4.34" y1="26.26" x2="13.11" y2="26.26"/>
      </g>
      <g>
        <line class="cls-5" x1="113.9" y1="4.34" x2="113.9" y2="13.11"/>
        <line class="cls-5" x1="109.51" y1="8.72" x2="118.29" y2="8.72"/>
      </g>
    </g>
  </g>
</svg>