<?xml version="1.0" encoding="UTF-8"?>
<svg id="Layer_2" data-name="Layer 2" xmlns="http://www.w3.org/2000/svg" viewBox="0 0 252.85 141.62">
  <defs>
    <style>
      .cls-1 {
        font-size: 12px;
        letter-spacing: -.05em;
      }

      .cls-2, .cls-3, .cls-4, .cls-5 {
        font-variation-settings: 'wght' 400;
      }

      .cls-2, .cls-4, .cls-5 {
        font-family: RobotoMono-Regular, 'Roboto Mono';
      }

      .cls-6, .cls-7, .cls-8 {
        stroke: #000;
        stroke-miterlimit: 10;
        stroke-width: .75px;
      }

      .cls-3 {
        font-family: NotoSansJP-Regular, 'Noto Sans JP';
        font-size: 18px;
        glyph-orientation-vertical: 0deg;
        text-orientation: upright;
        writing-mode: tb;
      }

      .cls-7, .cls-8 {
        fill: none;
      }

      .cls-4 {
        font-size: 48.13px;
        letter-spacing: -.12em;
      }

      .cls-8 {
        stroke-linecap: square;
      }

      .cls-9 {
        font-family: RobotoMono-Bold, 'Roboto Mono';
        font-variation-settings: 'wght' 700;
        font-weight: 700;
      }

      .cls-5 {
        font-size: 8px;
        letter-spacing: -.05em;
      }
    </style>
  </defs>
  <g id="Layer_1-2" data-name="Layer 1">
    <g>
      <circle class="cls-7" cx="27.14" cy="33.21" r="26.55"/>
      <circle class="cls-7" cx="80.25" cy="33.21" r="14.8"/>
      <circle class="cls-7" cx="80.25" cy="33.21" r="26.55"/>
      <circle class="cls-6" cx="104.4" cy="9.05" r="2.4"/>
      <circle class="cls-7" cx="99.38" cy="133.82" r="7.42"/>
      <line class="cls-7" x1="106.8" y1="106.86" x2="106.8" y2="133.82"/>
      <line class="cls-7" x1="106.8" y1="33.21" x2="106.8" y2="67.62"/>
      <line class="cls-7" x1="93.92" y1="138.85" x2="8.05" y2="51.65"/>
      <rect x="230.42" y="122.54" width="14.84" height="22.57" rx="2.67" ry="2.67" transform="translate(371.66 -104.02) rotate(90)"/>
      <rect x="211.37" y="128.18" width="14.84" height="11.28" rx="2.67" ry="2.67" transform="translate(352.61 -84.96) rotate(90)"/>
      <rect x="200.6" y="130.83" width="14.84" height="5.99" rx="2.48" ry="2.48" transform="translate(341.85 -74.2) rotate(90)"/>
      <g>
        <polygon points="177.91 141.24 182.49 141.24 183.52 141.24 183.52 140.21 183.52 135.63 182.49 135.63 182.49 139.48 178.79 135.78 178.06 136.51 181.76 140.21 177.91 140.21 177.91 141.24"/>
        <polygon points="183.52 132.02 183.52 127.44 183.52 126.4 182.49 126.4 177.91 126.4 177.91 127.44 181.76 127.44 178.06 131.13 178.79 131.87 182.49 128.17 182.49 132.02 183.52 132.02"/>
        <polygon points="174.3 126.4 169.72 126.4 168.68 126.4 168.68 127.44 168.68 132.02 169.72 132.02 169.72 128.17 173.41 131.87 174.15 131.13 170.45 127.44 174.3 127.44 174.3 126.4"/>
        <polygon points="168.68 135.63 168.68 140.21 168.68 141.24 169.72 141.24 174.3 141.24 174.3 140.21 170.45 140.21 174.15 136.51 173.41 135.78 169.72 139.48 169.72 135.63 168.68 135.63"/>
      </g>
      <path d="M193.28,140.24c0-.56.45-1,1-1h0c.56,0,1,.45,1,1h0c0,.56-.45,1-1,1h0c-.56,0-1-.45-1-1ZM190.57,140.25c-.48-.27-.65-.89-.37-1.37h0c.27-.48.89-.64,1.37-.37h0c.48.28.64.9.37,1.37h0c-.19.32-.52.5-.87.5h0c-.17,0-.35-.04-.5-.13ZM196.62,139.88c-.28-.48-.11-1.1.36-1.37h0c.48-.28,1.1-.11,1.37.36h0c.28.48.11,1.1-.36,1.37h0c-.16.09-.33.13-.5.13h0c-.35,0-.68-.17-.87-.5ZM187.86,137.55h0c-.28-.48-.11-1.1.36-1.37h0c.48-.28,1.1-.12,1.37.36h0c.28.48.12,1.09-.36,1.37h0c-.16.09-.33.13-.5.13h0c-.35,0-.68-.17-.87-.5ZM199.33,137.9c-.48-.27-.64-.89-.37-1.37h0c.28-.48.89-.65,1.37-.37h0c.48.27.64.89.37,1.37h0c-.19.32-.52.5-.87.5h0c-.17,0-.35-.05-.5-.14ZM186.86,133.84c0-.56.44-1,1-1h0c.56,0,1,.45,1.01,1h0c0,.56-.45,1.01-1,1.01h0c-.56,0-1-.45-1-1ZM199.69,133.82h0v-.02h0c0-.56.44-1.01,1-1.01h0c.56,0,1.01.44,1.01,1h0v.02h0c0,.57-.45,1.02-1,1.02h0c-.56,0-1-.45-1-1ZM188.21,131.5c-.48-.28-.65-.89-.37-1.37h0c.27-.48.89-.65,1.37-.37h0c.48.27.64.89.37,1.37h0c-.19.33-.52.51-.87.51h0c-.17,0-.35-.05-.5-.13ZM198.96,131.1c-.28-.48-.12-1.09.35-1.37h0c.48-.28,1.1-.12,1.38.36h0c.27.48.11,1.09-.36,1.37h0c-.16.09-.33.14-.51.14h0c-.34,0-.68-.18-.86-.5ZM190.19,128.78c-.28-.48-.12-1.1.36-1.37h0c.48-.28,1.09-.12,1.37.36h0c.28.48.11,1.09-.36,1.37h0c-.16.09-.33.13-.5.13h0c-.35,0-.68-.18-.87-.5ZM196.96,129.12h0c-.48-.27-.65-.89-.38-1.37h0c.27-.48.89-.64,1.37-.37h0c.48.27.64.89.37,1.37h0c-.18.32-.52.5-.87.5h0c-.17,0-.34-.04-.5-.13ZM193.25,127.41c0-.56.45-1,1-1h0c.56,0,1.01.44,1.01,1h0c0,.56-.45,1-1,1.01h0c-.56,0-1-.45-1-1Z"/>
      <path d="M19.98,102.78c1.05,0,1.9.85,1.9,1.9s-.85,1.9-1.9,1.9h-.07c-1.05,0-1.9-.85-1.9-1.89s.85-1.92,1.89-1.92h.09M28.46,105.05h0c.33,0,.67.09.95.25.6.35.95.97.95,1.65,0,.33-.09.65-.27.96-.33.58-.96.95-1.64.95-.33,0-.66-.09-.94-.25-.93-.54-1.24-1.69-.7-2.61.33-.58.96-.95,1.65-.95M11.43,105.08h0c.68,0,1.32.36,1.66.94.18.31.27.63.27.97,0,.68-.36,1.3-.96,1.64-.3.17-.63.26-.97.26-.68,0-1.29-.35-1.63-.93-.26-.44-.33-.96-.2-1.45.13-.49.44-.91.88-1.16.29-.17.61-.25.95-.25M34.66,111.25h0c.68,0,1.31.36,1.65.95.17.29.25.61.25.95,0,.69-.35,1.31-.94,1.65-.29.17-.62.26-.96.26-.68,0-1.31-.36-1.65-.95-.26-.44-.33-.96-.2-1.45.13-.49.44-.9.88-1.15.29-.17.62-.26.96-.26M5.26,111.31h0c.33,0,.67.09.96.26.58.33.94.96.94,1.65,0,.27-.06.54-.16.78l-.09.16c-.34.59-.97.96-1.66.96-.33,0-.66-.09-.94-.25-.91-.52-1.22-1.69-.7-2.61.33-.58.96-.95,1.65-.95M36.93,119.72c1.05,0,1.9.85,1.9,1.9s-.85,1.9-1.9,1.9-1.9-.85-1.9-1.9.85-1.9,1.9-1.9M3.01,119.79c1.05,0,1.91.86,1.92,1.9,0,1.05-.85,1.9-1.9,1.9s-1.9-.85-1.9-1.9c0-.51.19-.99.55-1.35.36-.36.83-.56,1.34-.56M34.68,128.19h0c.33,0,.66.09.94.25.6.35.95.97.95,1.65,0,.36-.08.67-.26.96-.34.59-.97.96-1.65.96-.33,0-.66-.09-.96-.26-.9-.52-1.22-1.69-.7-2.6.34-.59.98-.95,1.66-.95M5.31,128.25h0c.68,0,1.31.36,1.66.95.16.28.25.61.25.95,0,.67-.36,1.31-.94,1.65-.3.17-.63.26-.97.26-.67,0-1.3-.36-1.63-.95-.54-.92-.24-2.06.69-2.6.28-.17.61-.26.94-.26M28.49,134.41c.68,0,1.29.36,1.64.95.16.28.25.61.25.95,0,.69-.35,1.31-.94,1.65-.29.17-.62.26-.96.26-.68,0-1.31-.36-1.65-.95-.26-.45-.33-.97-.2-1.46.13-.48.44-.89.88-1.14.3-.17.63-.26.96-.26M11.54,134.44c.33,0,.65.09.93.25l.11.06c.54.36.86.94.86,1.59,0,.33-.09.66-.25.95-.35.59-.98.96-1.65.96-.33,0-.66-.09-.96-.26-.44-.25-.76-.66-.89-1.15-.13-.49-.06-1,.2-1.45.34-.58.97-.95,1.65-.95M20,136.69c1.06,0,1.92.86,1.92,1.9s-.85,1.9-1.94,1.9c-1.03,0-1.87-.85-1.87-1.89s.85-1.91,1.89-1.92M19.98,102.03h-.09c-1.47,0-2.64,1.2-2.64,2.67s1.2,2.64,2.65,2.64h.07c1.47,0,2.65-1.19,2.65-2.65s-1.19-2.65-2.65-2.65h0ZM28.46,104.3c-.92,0-1.81.47-2.3,1.33-.74,1.27-.3,2.88.97,3.63.41.24.87.35,1.32.35.91,0,1.81-.47,2.29-1.33.25-.41.37-.87.37-1.33,0-.92-.48-1.8-1.33-2.3-.42-.24-.88-.35-1.33-.35h0ZM11.43,104.33c-.45,0-.91.11-1.32.35-1.27.74-1.7,2.37-.96,3.65.49.84,1.37,1.3,2.28,1.3.46,0,.92-.12,1.35-.37.85-.48,1.33-1.38,1.33-2.28,0-.46-.12-.92-.37-1.34-.5-.84-1.39-1.31-2.31-1.31h0ZM34.66,110.5c-.45,0-.91.12-1.33.36-1.26.73-1.7,2.35-.96,3.63.49.84,1.38,1.32,2.29,1.32.45,0,.91-.12,1.33-.36.85-.5,1.31-1.38,1.31-2.3,0-.44-.11-.9-.35-1.33-.49-.84-1.38-1.32-2.29-1.32h0ZM5.26,110.56c-.92,0-1.81.47-2.3,1.33-.73,1.27-.28,2.9.97,3.63.42.24.87.35,1.31.35.92,0,1.82-.48,2.31-1.34v.02c.25-.42.35-.88.35-1.33,0-.92-.48-1.82-1.33-2.3-.42-.24-.88-.35-1.33-.35h0ZM36.93,118.97c-1.47,0-2.65,1.19-2.65,2.65s1.19,2.65,2.65,2.65,2.65-1.19,2.65-2.65-1.19-2.65-2.65-2.65h0ZM3.01,119.04c-1.47,0-2.65,1.2-2.64,2.67,0,1.45,1.19,2.64,2.65,2.64s2.65-1.19,2.65-2.65c-.02-1.47-1.2-2.65-2.67-2.65h0ZM34.68,127.44c-.91,0-1.81.47-2.31,1.33-.73,1.27-.28,2.9.97,3.63.42.25.88.36,1.33.36.92,0,1.81-.48,2.3-1.33.25-.41.35-.87.35-1.33,0-.92-.48-1.8-1.33-2.3-.41-.24-.87-.35-1.32-.35h0ZM5.31,127.5c-.45,0-.91.12-1.32.36-1.27.74-1.7,2.35-.96,3.63.48.85,1.37,1.32,2.28,1.32.46,0,.92-.12,1.35-.37.83-.5,1.31-1.38,1.31-2.3,0-.44-.11-.9-.35-1.33-.5-.84-1.39-1.32-2.3-1.32h0ZM28.49,133.66c-.45,0-.92.12-1.34.37-1.27.72-1.7,2.35-.96,3.63.49.84,1.38,1.32,2.29,1.32.45,0,.91-.12,1.33-.36.85-.5,1.31-1.38,1.31-2.3,0-.44-.11-.9-.35-1.33-.5-.85-1.38-1.32-2.29-1.32h0ZM11.54,133.69c-.92,0-1.82.48-2.3,1.32-.74,1.27-.3,2.9.97,3.63.42.24.88.36,1.33.36.91,0,1.8-.48,2.3-1.33.23-.41.35-.87.35-1.33,0-.92-.48-1.8-1.33-2.3h-.02c-.41-.24-.86-.35-1.31-.35h0ZM20,135.94c-1.45.02-2.64,1.2-2.64,2.67s1.17,2.64,2.62,2.64c.01,0,.02,0,.03,0,1.47,0,2.65-1.19,2.65-2.65s-1.2-2.65-2.67-2.65h0Z"/>
      <text class="cls-4" transform="translate(177.74 41.18)"><tspan x="0" y="0">009</tspan></text>
      <text class="cls-3" transform="translate(169.84 5.92)"><tspan x="0" y="0">稿</tspan></text>
      <line class="cls-8" x1="104.4" y1="106.86" x2="109.2" y2="106.86"/>
      <line class="cls-8" x1="104.4" y1="67.62" x2="109.2" y2="67.62"/>
      <g>
        <circle cx="99.38" cy="133.84" r="1.86"/>
        <path d="M99.38,126.42c-4.1,0-7.42,3.32-7.42,7.42s3.32,7.42,7.42,7.42c4.1,0,7.42-3.32,7.42-7.42,0-4.1-3.32-7.42-7.42-7.42ZM103.7,134.46h-1.3c-.08.39-.24.76-.45,1.08l.95.95-.87.87-.95-.95c-.32.21-.69.37-1.08.45v1.3h-1.24v-1.3c-.39-.08-.76-.24-1.09-.45l-.95.95-.87-.87.95-.95c-.21-.32-.37-.69-.45-1.08h-1.3v-1.24h1.3c.08-.39.24-.76.45-1.08l-.95-.95.87-.87.95.95c.32-.21.69-.37,1.08-.45v-1.3h1.24v1.3c.39.08.76.24,1.08.45l.95-.95.87.87-.95.95c.21.32.37.69.45,1.08h1.3v1.24Z"/>
      </g>
      <g>
        <line class="cls-8" x1="16.68" y1="22.74" x2="37.61" y2="43.67"/>
        <line class="cls-8" x1="16.68" y1="43.67" x2="37.61" y2="22.74"/>
        <line class="cls-8" x1="12.34" y1="33.21" x2="41.95" y2="33.21"/>
        <line class="cls-8" x1="27.14" y1="48.01" x2="27.14" y2="18.41"/>
      </g>
      <text class="cls-5" transform="translate(111.99 12.05)"><tspan x="0" y="0">OUTPUT_A1</tspan><tspan x="0" y="9.6">EXPORT</tspan><tspan x="0" y="19.2">READY</tspan></text>
      <path d="M244.91,45.78c1.91,0,3.47,1.55,3.47,3.47v.08c0,1.91-1.55,3.47-3.47,3.47h-59.97c-1.91,0-3.47-1.55-3.47-3.47v-.08c0-1.91,1.55-3.47,3.47-3.47h59.97M244.91,45.03h-59.97c-2.33,0-4.22,1.89-4.22,4.22v.08c0,2.33,1.89,4.22,4.22,4.22h59.97c2.33,0,4.22-1.89,4.22-4.22v-.08c0-2.33-1.89-4.22-4.22-4.22h0Z"/>
      <text class="cls-1" transform="translate(70.16 84.72)"><tspan class="cls-9" x="0" y="0">DIAGNOSTIC UNIT</tspan><tspan class="cls-2" x="99.02" y="0" xml:space="preserve"> — RUNNING</tspan><tspan class="cls-2"><tspan x="0" y="14">CHECKSUM: OK | LATENCY: 6ms</tspan></tspan></text>
    </g>
  </g>
</svg>