<?xml version="1.0" encoding="UTF-8"?>
<svg id="Layer_2" data-name="Layer 2" xmlns="http://www.w3.org/2000/svg" viewBox="0 0 329.65 52.19">
  <defs>
    <style>
      .cls-1 {
        font-size: 21px;
      }

      .cls-1, .cls-2 {
        font-family: RobotoMono-Bold, 'Roboto Mono';
        font-variation-settings: 'wght' 700;
        font-weight: 700;
      }

      .cls-2 {
        font-size: 8px;
        letter-spacing: -.05em;
      }

      .cls-3 {
        letter-spacing: 1.16em;
      }

      .cls-4 {
        letter-spacing: 1.16em;
      }

      .cls-5, .cls-6 {
        fill: none;
        stroke: #000;
        stroke-miterlimit: 10;
        stroke-width: .75px;
      }

      .cls-7 {
        letter-spacing: -.05em;
      }

      .cls-8 {
        letter-spacing: -.05em;
      }

      .cls-6 {
        stroke-linecap: square;
      }
    </style>
  </defs>
  <g id="Layer_1-2" data-name="Layer 1">
    <g>
      <g>
        <g>
          <circle class="cls-5" cx="7.93" cy="42.11" r="7.55"/>
          <line class="cls-6" x1="4.14" y1="38.32" x2="7.93" y2="42.11"/>
        </g>
        <g>
          <circle class="cls-5" cx="25.81" cy="42.11" r="7.55"/>
          <line class="cls-6" x1="25.81" y1="47.48" x2="25.81" y2="42.11"/>
        </g>
        <g>
          <circle class="cls-5" cx="61.59" cy="42.11" r="7.55"/>
          <line class="cls-6" x1="56.23" y1="42.11" x2="61.59" y2="42.11"/>
        </g>
        <g>
          <circle class="cls-5" cx="43.7" cy="42.11" r="7.55"/>
          <line class="cls-6" x1="39.91" y1="45.9" x2="43.7" y2="42.11"/>
        </g>
      </g>
      <g>
        <g id="_Radial_Repeat_" data-name="&amp;lt;Radial Repeat&amp;gt;">
          <line class="cls-5" x1="79.08" y1="49.67" x2="79.08" y2="46.33"/>
        </g>
        <g id="_Radial_Repeat_-2" data-name="&amp;lt;Radial Repeat&amp;gt;">
          <line class="cls-5" x1="74.64" y1="48.22" x2="76.6" y2="45.53"/>
        </g>
        <g id="_Radial_Repeat_-3" data-name="&amp;lt;Radial Repeat&amp;gt;">
          <line class="cls-5" x1="71.89" y1="44.45" x2="75.06" y2="43.42"/>
        </g>
        <g id="_Radial_Repeat_-4" data-name="&amp;lt;Radial Repeat&amp;gt;">
          <line class="cls-5" x1="71.89" y1="39.78" x2="75.06" y2="40.81"/>
        </g>
        <g id="_Radial_Repeat_-5" data-name="&amp;lt;Radial Repeat&amp;gt;">
          <line class="cls-5" x1="74.64" y1="36" x2="76.6" y2="38.7"/>
        </g>
        <g id="_Radial_Repeat_-6" data-name="&amp;lt;Radial Repeat&amp;gt;">
          <line class="cls-5" x1="79.08" y1="34.56" x2="79.08" y2="37.89"/>
        </g>
        <g id="_Radial_Repeat_-7" data-name="&amp;lt;Radial Repeat&amp;gt;">
          <line class="cls-5" x1="83.52" y1="36" x2="81.56" y2="38.7"/>
        </g>
        <g id="_Radial_Repeat_-8" data-name="&amp;lt;Radial Repeat&amp;gt;">
          <line class="cls-5" x1="86.26" y1="39.78" x2="83.09" y2="40.81"/>
        </g>
        <g id="_Radial_Repeat_-9" data-name="&amp;lt;Radial Repeat&amp;gt;">
          <line class="cls-5" x1="86.26" y1="44.45" x2="83.09" y2="43.42"/>
        </g>
        <g id="_Radial_Repeat_-10" data-name="&amp;lt;Radial Repeat&amp;gt;">
          <line class="cls-5" x1="83.52" y1="48.22" x2="81.56" y2="45.53"/>
        </g>
      </g>
      <g>
        <g id="_Radial_Repeat_-11" data-name="&amp;lt;Radial Repeat&amp;gt;">
          <line class="cls-5" x1="96.2" y1="49.67" x2="96.2" y2="46.33"/>
        </g>
        <g id="_Radial_Repeat_-12" data-name="&amp;lt;Radial Repeat&amp;gt;">
          <line class="cls-5" x1="91.76" y1="48.22" x2="93.72" y2="45.53"/>
        </g>
        <g id="_Radial_Repeat_-13" data-name="&amp;lt;Radial Repeat&amp;gt;">
          <line class="cls-5" x1="89.01" y1="44.45" x2="92.18" y2="43.42"/>
        </g>
        <g id="_Radial_Repeat_-14" data-name="&amp;lt;Radial Repeat&amp;gt;">
          <line class="cls-5" x1="89.01" y1="39.78" x2="92.18" y2="40.81"/>
        </g>
        <g id="_Radial_Repeat_-15" data-name="&amp;lt;Radial Repeat&amp;gt;">
          <line class="cls-5" x1="91.76" y1="36" x2="93.72" y2="38.7"/>
        </g>
        <g id="_Radial_Repeat_-16" data-name="&amp;lt;Radial Repeat&amp;gt;">
          <line class="cls-5" x1="96.2" y1="34.56" x2="96.2" y2="37.89"/>
        </g>
        <g id="_Radial_Repeat_-17" data-name="&amp;lt;Radial Repeat&amp;gt;">
          <line class="cls-5" x1="100.63" y1="36" x2="98.67" y2="38.7"/>
        </g>
        <g id="_Radial_Repeat_-18" data-name="&amp;lt;Radial Repeat&amp;gt;">
          <line class="cls-5" x1="103.38" y1="39.78" x2="100.21" y2="40.81"/>
        </g>
        <g id="_Radial_Repeat_-19" data-name="&amp;lt;Radial Repeat&amp;gt;">
          <line class="cls-5" x1="103.38" y1="44.45" x2="100.21" y2="43.42"/>
        </g>
        <g id="_Radial_Repeat_-20" data-name="&amp;lt;Radial Repeat&amp;gt;">
          <line class="cls-5" x1="100.64" y1="48.22" x2="98.68" y2="45.53"/>
        </g>
      </g>
      <g>
        <g id="_Radial_Repeat_-21" data-name="&amp;lt;Radial Repeat&amp;gt;">
          <line class="cls-5" x1="113.31" y1="49.67" x2="113.31" y2="46.33"/>
        </g>
        <g id="_Radial_Repeat_-22" data-name="&amp;lt;Radial Repeat&amp;gt;">
          <line class="cls-5" x1="108.87" y1="48.22" x2="110.83" y2="45.53"/>
        </g>
        <g id="_Radial_Repeat_-23" data-name="&amp;lt;Radial Repeat&amp;gt;">
          <line class="cls-5" x1="106.13" y1="44.45" x2="109.3" y2="43.42"/>
        </g>
        <g id="_Radial_Repeat_-24" data-name="&amp;lt;Radial Repeat&amp;gt;">
          <line class="cls-5" x1="106.13" y1="39.78" x2="109.3" y2="40.81"/>
        </g>
        <g id="_Radial_Repeat_-25" data-name="&amp;lt;Radial Repeat&amp;gt;">
          <line class="cls-5" x1="108.87" y1="36" x2="110.83" y2="38.7"/>
        </g>
        <g id="_Radial_Repeat_-26" data-name="&amp;lt;Radial Repeat&amp;gt;">
          <line class="cls-5" x1="113.31" y1="34.56" x2="113.31" y2="37.89"/>
        </g>
        <g id="_Radial_Repeat_-27" data-name="&amp;lt;Radial Repeat&amp;gt;">
          <line class="cls-5" x1="117.75" y1="36" x2="115.79" y2="38.7"/>
        </g>
        <g id="_Radial_Repeat_-28" data-name="&amp;lt;Radial Repeat&amp;gt;">
          <line class="cls-5" x1="120.5" y1="39.78" x2="117.33" y2="40.81"/>
        </g>
        <g id="_Radial_Repeat_-29" data-name="&amp;lt;Radial Repeat&amp;gt;">
          <line class="cls-5" x1="120.5" y1="44.45" x2="117.33" y2="43.42"/>
        </g>
        <g id="_Radial_Repeat_-30" data-name="&amp;lt;Radial Repeat&amp;gt;">
          <line class="cls-5" x1="117.75" y1="48.22" x2="115.79" y2="45.53"/>
        </g>
      </g>
      <path d="M326.04,27.63v19.71c0,.49-.4.88-.88.88h-19.71c-.79,0-1.18-.95-.63-1.51l19.71-19.71c.56-.56,1.51-.16,1.51.63Z"/>
      <text class="cls-1" transform="translate(.37 17.96)"><tspan class="cls-8" x="0" y="0">HARDWARE</tspan><tspan class="cls-3" x="92.42" y="0"> </tspan><tspan class="cls-7" x="129.46" y="0">—</tspan><tspan class="cls-4" x="141.01" y="0"> </tspan><tspan class="cls-8" x="178.04" y="0">[CALIBRATING]</tspan></text>
      <text class="cls-2" transform="translate(133.29 43.02)"><tspan x="0" y="0">MODULE A</tspan><tspan x="0" y="7">INITIALIZING</tspan></text>
      <line class="cls-5" x1="133.29" y1="27.7" x2="187.1" y2="27.7"/>
      <text class="cls-2" transform="translate(199.89 43.02)"><tspan x="0" y="0">PROCESSING — ID: 33-A9 </tspan><tspan x="0" y="7">— LOAD: 48%</tspan></text>
      <line class="cls-5" x1="199.89" y1="27.7" x2="303.31" y2="27.7"/>
      <line class="cls-5" x1=".38" y1="27.7" x2="120.5" y2="27.7"/>
    </g>
  </g>
</svg>