<?xml version="1.0" encoding="UTF-8"?>
<svg id="Layer_2" data-name="Layer 2" xmlns="http://www.w3.org/2000/svg" viewBox="0 0 278.06 94.15">
  <defs>
    <style>
      .cls-1 {
        fill: none;
        stroke-linecap: round;
        stroke-width: 2px;
      }

      .cls-1, .cls-2 {
        stroke: #000;
        stroke-miterlimit: 10;
      }

      .cls-3 {
        font-family: RobotoMono-Bold, 'Roboto Mono';
        font-size: 8px;
        font-variation-settings: 'wght' 700;
        font-weight: 700;
      }

      .cls-4 {
        letter-spacing: 1.45em;
      }

      .cls-5 {
        letter-spacing: 1.45em;
      }

      .cls-2 {
        stroke-width: .75px;
      }

      .cls-6 {
        font-family: RobotoMono-Regular, 'Roboto Mono';
        font-size: 12px;
        font-variation-settings: 'wght' 400;
        letter-spacing: -.05em;
      }

      .cls-7 {
        font-family: RobotoMono-Light, 'Roboto Mono';
        font-size: 35.5px;
        font-variation-settings: 'wght' 300;
        font-weight: 300;
        letter-spacing: -.05em;
      }

      .cls-8 {
        letter-spacing: -.05em;
      }
    </style>
  </defs>
  <g id="Layer_1-2" data-name="Layer 1">
    <g>
      <g>
        <path class="cls-2" d="M44.5,2.29c24.37,0,44.12,19.75,44.12,44.12V2.29h-44.12Z"/>
        <path class="cls-2" d="M.38,46.41v44.12h44.12C20.13,90.53.38,70.77.38,46.41Z"/>
        <path class="cls-2" d="M44.5,2.29H.38v44.12C.38,22.04,20.13,2.29,44.5,2.29Z"/>
        <path class="cls-2" d="M44.5,90.53h44.12v-44.12c0,24.37-19.75,44.12-44.12,44.12Z"/>
      </g>
      <line class="cls-1" x1="44.5" y1="77.73" x2="44.5" y2="46.41"/>
      <text class="cls-7" transform="translate(92.72 30.37)"><tspan x="0" y="0">(ANALOG)</tspan></text>
      <text class="cls-6" transform="translate(97.9 76.89)"><tspan x="0" y="0">VECTOR PATH — STABLE</tspan><tspan x="0" y="14">RATE: CONSTANT | TEMP: 26°C</tspan></text>
      <g>
        <path d="M270.12,18.18c-4.38,0-7.95-3.56-7.95-7.95s3.56-7.95,7.95-7.95,7.95,3.56,7.95,7.95-3.56,7.95-7.95,7.95ZM270.12,2.95c-4.01,0-7.29,3.27-7.29,7.29s3.27,7.29,7.29,7.29,7.29-3.27,7.29-7.29-3.27-7.29-7.29-7.29Z"/>
        <path d="M270.12,18.18c-2.56,0-4.56-3.5-4.56-7.95s2-7.95,4.56-7.95,4.56,3.5,4.56,7.95-2,7.95-4.56,7.95ZM270.12,2.95c-2.15,0-3.91,3.27-3.91,7.29s1.75,7.29,3.91,7.29,3.91-3.27,3.91-7.29-1.76-7.29-3.91-7.29Z"/>
        <path d="M263.78,5.68h12.66v.66h-12.66v-.66ZM263.78,14.14h12.66v.66h-12.66v-.66ZM262.5,9.9h15.23v.66h-15.23v-.66Z"/>
        <path d="M269.78,2.62h.66v15.23h-.66V2.62Z"/>
      </g>
      <g>
        <path d="M270.12,33.46c-4.38,0-7.95-3.56-7.95-7.95s3.56-7.95,7.95-7.95,7.95,3.56,7.95,7.95-3.56,7.95-7.95,7.95ZM270.12,18.23c-4.01,0-7.29,3.27-7.29,7.29s3.27,7.29,7.29,7.29,7.29-3.27,7.29-7.29-3.27-7.29-7.29-7.29Z"/>
        <path d="M270.12,33.46c-2.56,0-4.56-3.5-4.56-7.95s2-7.95,4.56-7.95,4.56,3.5,4.56,7.95-2,7.95-4.56,7.95ZM270.12,18.23c-2.15,0-3.91,3.27-3.91,7.29s1.75,7.29,3.91,7.29,3.91-3.27,3.91-7.29-1.76-7.29-3.91-7.29Z"/>
        <path d="M263.78,20.96h12.66v.66h-12.66v-.66ZM263.78,29.42h12.66v.66h-12.66v-.66ZM262.5,25.18h15.23v.66h-15.23v-.66Z"/>
        <path d="M269.78,17.9h.66v15.23h-.66v-15.23Z"/>
      </g>
      <g>
        <path d="M270.12,48.7c-4.38,0-7.95-3.56-7.95-7.95s3.56-7.95,7.95-7.95,7.95,3.56,7.95,7.95-3.56,7.95-7.95,7.95ZM270.12,33.46c-4.01,0-7.29,3.27-7.29,7.29s3.27,7.29,7.29,7.29,7.29-3.27,7.29-7.29-3.27-7.29-7.29-7.29Z"/>
        <path d="M270.12,48.7c-2.56,0-4.56-3.5-4.56-7.95s2-7.95,4.56-7.95,4.56,3.5,4.56,7.95-2,7.95-4.56,7.95ZM270.12,33.46c-2.15,0-3.91,3.27-3.91,7.29s1.75,7.29,3.91,7.29,3.91-3.27,3.91-7.29-1.76-7.29-3.91-7.29Z"/>
        <path d="M263.78,36.19h12.66v.66h-12.66v-.66ZM263.78,44.66h12.66v.66h-12.66v-.66ZM262.5,40.42h15.23v.66h-15.23v-.66Z"/>
        <path d="M269.78,33.13h.66v15.23h-.66v-15.23Z"/>
      </g>
      <g>
        <path d="M32.59,61.37c-.53-.42-.61-1.18-.19-1.71h0c.42-.53,1.18-.61,1.71-.19h0c.53.42.61,1.18.19,1.71h0c-.24.3-.59.46-.95.46h0c-.26,0-.53-.09-.75-.26ZM54.71,61.16c-.42-.53-.33-1.29.19-1.71h0c.53-.42,1.29-.33,1.71.19h0c.42.53.33,1.29-.19,1.71h0c-.23.18-.49.27-.76.27h0c-.36,0-.71-.16-.95-.46ZM27.28,54.73c-.29-.6-.04-1.33.56-1.63h0c.6-.29,1.34-.04,1.63.56h0c.29.6.04,1.34-.56,1.63h0c-.17.08-.35.12-.53.12h0c-.45,0-.88-.25-1.1-.69ZM60.1,55.26c-.6-.29-.86-1.02-.57-1.62h0c.29-.6,1.02-.86,1.63-.57h0c.6.29.86,1.02.56,1.62h0c-.21.44-.64.69-1.1.69h0c-.18,0-.36-.04-.53-.12ZM25.37,46.44c0-.67.54-1.22,1.21-1.22h0c.67,0,1.22.54,1.22,1.22h0c0,.67-.54,1.22-1.22,1.22h0c-.67,0-1.21-.54-1.21-1.21ZM61.18,46.4v-.03h0v-.03h0c0-.67.54-1.22,1.21-1.23h0c.67,0,1.22.54,1.22,1.21h0v.03h0v.05h0c0,.67-.55,1.22-1.22,1.22h0c-.67,0-1.22-.54-1.22-1.22ZM27.82,39.77c-.61-.29-.86-1.02-.57-1.62h0c.29-.6,1.02-.86,1.62-.57h0c.6.29.86,1.02.57,1.62h0c-.21.44-.65.69-1.1.69h0c-.17,0-.36-.04-.52-.12ZM59.51,39.1c-.3-.6-.04-1.33.56-1.63h0c.6-.3,1.34-.04,1.63.56h0c.3.6.04,1.34-.56,1.63h0c-.17.09-.35.13-.53.13h0c-.45,0-.88-.25-1.1-.69ZM32.35,33.19c-.42-.52-.34-1.29.19-1.71h0c.52-.42,1.29-.34,1.71.19h0c.42.52.34,1.29-.19,1.71h0c-.23.18-.5.27-.76.27h0c-.36,0-.71-.16-.95-.46ZM54.85,33.32c-.53-.41-.61-1.18-.19-1.71h0c.42-.53,1.18-.62,1.71-.2h0c.53.42.62,1.18.2,1.71h0c-.24.3-.6.46-.95.46h0c-.27,0-.54-.09-.76-.26ZM39.27,29.23c-.15-.65.26-1.31.91-1.46h0c.66-.15,1.31.26,1.46.91h0c.15.66-.26,1.31-.91,1.46h0c-.09.02-.18.03-.28.03h0c-.56,0-1.06-.38-1.19-.95ZM48.16,30.12c-.66-.15-1.07-.8-.93-1.46h0c.15-.65.8-1.07,1.46-.92h0c.65.15,1.07.8.92,1.45h0c-.13.57-.63.95-1.19.95h0c-.09,0-.17,0-.26-.03Z"/>
        <path d="M36.74,54.18c-.47-.47-.48-1.25,0-1.72h0c.47-.48,1.25-.48,1.72,0h0c.47.47.47,1.25,0,1.72h0c-.24.24-.55.36-.86.36h0c-.31,0-.62-.12-.86-.36ZM50.55,54.17c-.47-.47-.47-1.25,0-1.72h0c.47-.47,1.25-.47,1.72,0h0c.47.47.47,1.25,0,1.72h0c-.24.24-.55.36-.86.36h0c-.31,0-.62-.12-.86-.36ZM33.51,46.43c0-.67.54-1.22,1.21-1.22h0c.67,0,1.22.54,1.22,1.22h0c0,.67-.54,1.22-1.21,1.22h0c-.67,0-1.22-.54-1.22-1.21ZM53.05,46.4v-.02h0v-.02h0c0-.67.54-1.22,1.21-1.23h0c.67,0,1.22.54,1.22,1.21h0v.03h0v.02h0c0,.67-.54,1.22-1.22,1.22h0c-.67,0-1.22-.54-1.22-1.22ZM36.71,40.37c-.47-.47-.48-1.25,0-1.72h0c.47-.48,1.25-.48,1.72,0h0c.48.47.48,1.24,0,1.72h0c-.24.24-.55.36-.86.36h0c-.31,0-.62-.12-.86-.35ZM50.52,40.33c-.48-.47-.48-1.25,0-1.72h0c.47-.47,1.25-.48,1.72,0h0c.48.47.48,1.24,0,1.72h0c-.24.24-.55.36-.86.36h0c-.31,0-.62-.12-.86-.35ZM43.25,36.63c0-.67.54-1.22,1.21-1.22h0c.67,0,1.22.54,1.22,1.21h0c0,.67-.54,1.22-1.21,1.22h0c-.67,0-1.21-.54-1.22-1.22Z"/>
      </g>
      <text class="cls-3" transform="translate(98.71 48.67)"><tspan class="cls-8" x="0" y="0">STANDBY</tspan><tspan class="cls-4" x="30.81" y="0"> </tspan><tspan class="cls-8" x="47.23" y="0">//</tspan><tspan class="cls-4" x="56.03" y="0"> </tspan><tspan class="cls-8" x="72.45" y="0">—</tspan><tspan class="cls-5" x="76.85" y="0"> </tspan><tspan class="cls-8" x="93.27" y="0">ID:</tspan><tspan class="cls-5" x="106.47" y="0"> </tspan><tspan class="cls-8" x="122.9" y="0">65-0C</tspan></text>
    </g>
  </g>
</svg>