<?xml version="1.0" encoding="UTF-8"?>
<svg id="Layer_2" data-name="Layer 2" xmlns="http://www.w3.org/2000/svg" viewBox="0 0 184.52 75.88">
  <defs>
    <style>
      .cls-1 {
        font-family: RobotoMono-Medium, 'Roboto Mono';
        font-size: 18px;
        font-variation-settings: 'wght' 500;
        font-weight: 500;
        letter-spacing: -.05em;
      }

      .cls-2 {
        font-family: RobotoMono-Regular, 'Roboto Mono';
        font-size: 11px;
        font-variation-settings: 'wght' 400;
        letter-spacing: -.05em;
      }

      .cls-3 {
        fill: none;
        stroke: #000;
        stroke-miterlimit: 10;
        stroke-width: .75px;
      }

      .cls-4 {
        font-family: RobotoMono-SemiBold, 'Roboto Mono';
        font-size: 8px;
        font-variation-settings: 'wght' 600;
        font-weight: 600;
        letter-spacing: -.05em;
      }
    </style>
  </defs>
  <g id="Layer_1-2" data-name="Layer 1">
    <g>
      <circle cx="158.49" cy="8.1" r="5.49"/>
      <path d="M19.33,69.93c-1.32-.43-2.05-1.84-1.62-3.17h0c.43-1.32,1.84-2.05,3.16-1.62h0c1.32.43,2.05,1.84,1.63,3.16h0c-.34,1.06-1.33,1.74-2.4,1.74h0c-.25,0-.51-.03-.77-.12ZM30.23,68.3c-.43-1.32.29-2.74,1.62-3.18h0c1.32-.43,2.73.29,3.17,1.62h0c.43,1.32-.29,2.74-1.62,3.17h0c-.26.08-.52.13-.78.13h0c-1.06,0-2.05-.68-2.39-1.74ZM7.93,61.67h0c-.82-1.12-.58-2.7.55-3.51h0c1.12-.82,2.7-.58,3.52.54h0c.81,1.12.57,2.7-.55,3.51h0c-.44.33-.96.49-1.48.49h0c-.77,0-1.53-.36-2.03-1.03ZM41.26,62.19c-1.12-.82-1.37-2.4-.55-3.52h0c.81-1.12,2.39-1.37,3.51-.55h0c1.12.82,1.37,2.39.55,3.51h0c-.49.68-1.26,1.04-2.04,1.04h0c-.51,0-1.03-.16-1.48-.48ZM3.55,48.3c0-1.39,1.12-2.52,2.52-2.52h0c1.39,0,2.52,1.12,2.52,2.51h0c0,1.39-1.12,2.52-2.51,2.52h0c-1.38,0-2.51-1.12-2.52-2.51ZM44.09,48.25v-.04h0v-.03h0c0-1.38,1.11-2.52,2.5-2.52h0c1.39,0,2.52,1.12,2.53,2.51h0s0,.03,0,.05h0s0,.03,0,.04h0c0,1.39-1.13,2.52-2.52,2.52h0c-1.38,0-2.51-1.12-2.51-2.52ZM3.55,48.29h0ZM8.44,38.41c-1.13-.81-1.38-2.39-.56-3.51h0c.81-1.12,2.38-1.37,3.5-.56h0c1.13.81,1.38,2.39.57,3.51h0c-.49.68-1.27,1.04-2.05,1.04h0c-.51,0-1.02-.16-1.47-.48ZM40.66,37.76c-.82-1.12-.58-2.69.54-3.51h0c1.12-.82,2.69-.58,3.51.54h0c.82,1.12.58,2.69-.55,3.51h0c-.44.33-.96.49-1.48.49h0c-.77,0-1.53-.35-2.03-1.03ZM17.63,29.77c-.44-1.32.28-2.74,1.6-3.17h0c1.32-.44,2.74.29,3.18,1.6h0c.44,1.32-.28,2.74-1.61,3.18h0c-.26.08-.52.13-.78.13h0c-1.06,0-2.05-.67-2.39-1.74ZM31.78,31.35c-1.32-.43-2.05-1.84-1.63-3.17h0c.42-1.32,1.84-2.05,3.16-1.62h0c1.32.42,2.05,1.84,1.63,3.16h0c-.34,1.06-1.33,1.74-2.4,1.74h0c-.25,0-.51-.03-.76-.12Z"/>
      <text class="cls-2" transform="translate(59.44 30.9)"><tspan x="0" y="0">OUTPUT: DIGITAL</tspan><tspan x="0" y="14">[INDEX] 0000200372</tspan><tspan x="0" y="28">CHANNEL: 04</tspan><tspan x="0" y="42">DRIVE-STATE: INTACT</tspan></text>
      <text class="cls-4" transform="translate(166.52 13.59)"><tspan x="0" y="0">2026</tspan></text>
      <text class="cls-1" transform="translate(0 15.4)"><tspan x="0" y="0">ACTIVE©</tspan></text>
      <path d="M2.58,23.89v1.83H.75v-1.83h1.83M3.33,23.14H0v3.33h3.33v-3.33h0Z"/>
      <path d="M2.58,70.8v1.83H.75v-1.83h1.83M3.33,70.05H0v3.33h3.33v-3.33h0Z"/>
      <path d="M51.86,23.89v1.83h-1.83v-1.83h1.83M52.61,23.14h-3.33v3.33h3.33v-3.33h0Z"/>
      <rect x="180.84" y="2.61" width="3.44" height="3.44"/>
      <rect x="166.7" y="2.61" width="3.44" height="3.44"/>
      <rect x="173.75" y="2.61" width="3.44" height="3.44"/>
      <path d="M51.86,70.8v1.83h-1.83v-1.83h1.83M52.61,70.05h-3.33v3.33h3.33v-3.33h0Z"/>
      <line class="cls-3" x1="142.35" y1="8.1" x2="89.29" y2="8.1"/>
    </g>
  </g>
</svg>